G04 EAGLE Gerber RS-274X export*
G75*
%MOMM*%
%FSLAX34Y34*%
%LPD*%
%INBottom Copper*%
%IPPOS*%
%AMOC8*
5,1,8,0,0,1.08239X$1,22.5*%
G01*
%ADD10R,1.850000X1.850000*%
%ADD11C,1.850000*%
%ADD12C,1.270000*%
%ADD13C,2.000000*%
%ADD14C,0.756400*%
%ADD15C,0.152400*%

G36*
X687061Y40680D02*
X687061Y40680D01*
X687078Y40690D01*
X687098Y40694D01*
X687187Y40747D01*
X687278Y40796D01*
X687292Y40810D01*
X687309Y40820D01*
X687376Y40899D01*
X687448Y40974D01*
X687456Y40992D01*
X687469Y41007D01*
X687508Y41103D01*
X687551Y41197D01*
X687553Y41217D01*
X687561Y41235D01*
X687579Y41402D01*
X687579Y738278D01*
X687576Y738298D01*
X687578Y738317D01*
X687556Y738419D01*
X687540Y738521D01*
X687530Y738538D01*
X687526Y738558D01*
X687473Y738647D01*
X687424Y738738D01*
X687410Y738752D01*
X687400Y738769D01*
X687321Y738836D01*
X687246Y738908D01*
X687228Y738916D01*
X687213Y738929D01*
X687117Y738968D01*
X687023Y739011D01*
X687003Y739013D01*
X686985Y739021D01*
X686818Y739039D01*
X129599Y739039D01*
X129528Y739028D01*
X129456Y739026D01*
X129407Y739008D01*
X129356Y739000D01*
X129293Y738966D01*
X129225Y738941D01*
X129185Y738909D01*
X129138Y738884D01*
X129089Y738832D01*
X129033Y738788D01*
X129005Y738744D01*
X128969Y738706D01*
X128939Y738641D01*
X128900Y738581D01*
X128887Y738530D01*
X128865Y738483D01*
X128858Y738412D01*
X128840Y738342D01*
X128844Y738290D01*
X128838Y738239D01*
X128854Y738168D01*
X128859Y738097D01*
X128880Y738049D01*
X128891Y737998D01*
X128927Y737937D01*
X128956Y737871D01*
X129000Y737815D01*
X129017Y737787D01*
X129035Y737772D01*
X129060Y737740D01*
X132074Y734726D01*
X135501Y728789D01*
X137276Y722168D01*
X137276Y715312D01*
X135501Y708691D01*
X132074Y702754D01*
X127226Y697906D01*
X121289Y694479D01*
X114668Y692704D01*
X107812Y692704D01*
X101191Y694479D01*
X95254Y697906D01*
X90406Y702754D01*
X86979Y708691D01*
X85204Y715312D01*
X85204Y722168D01*
X86979Y728789D01*
X90406Y734726D01*
X93420Y737740D01*
X93462Y737798D01*
X93511Y737850D01*
X93533Y737897D01*
X93563Y737939D01*
X93584Y738008D01*
X93615Y738073D01*
X93620Y738125D01*
X93636Y738175D01*
X93634Y738246D01*
X93642Y738317D01*
X93631Y738368D01*
X93629Y738420D01*
X93605Y738488D01*
X93589Y738558D01*
X93563Y738603D01*
X93545Y738651D01*
X93500Y738707D01*
X93463Y738769D01*
X93424Y738803D01*
X93391Y738843D01*
X93331Y738882D01*
X93276Y738929D01*
X93228Y738948D01*
X93184Y738976D01*
X93115Y738994D01*
X93048Y739021D01*
X92977Y739029D01*
X92946Y739037D01*
X92922Y739035D01*
X92881Y739039D01*
X-11938Y739039D01*
X-11958Y739036D01*
X-11977Y739038D01*
X-12079Y739016D01*
X-12181Y739000D01*
X-12198Y738990D01*
X-12218Y738986D01*
X-12307Y738933D01*
X-12398Y738884D01*
X-12412Y738870D01*
X-12429Y738860D01*
X-12496Y738781D01*
X-12568Y738706D01*
X-12576Y738688D01*
X-12589Y738673D01*
X-12628Y738577D01*
X-12671Y738483D01*
X-12673Y738463D01*
X-12681Y738445D01*
X-12699Y738278D01*
X-12699Y41402D01*
X-12696Y41382D01*
X-12698Y41363D01*
X-12676Y41261D01*
X-12660Y41159D01*
X-12650Y41142D01*
X-12646Y41122D01*
X-12593Y41033D01*
X-12544Y40942D01*
X-12530Y40928D01*
X-12520Y40911D01*
X-12441Y40844D01*
X-12366Y40772D01*
X-12348Y40764D01*
X-12333Y40751D01*
X-12237Y40712D01*
X-12143Y40669D01*
X-12123Y40667D01*
X-12105Y40659D01*
X-11938Y40641D01*
X686818Y40641D01*
X686838Y40644D01*
X686857Y40642D01*
X686959Y40664D01*
X687061Y40680D01*
G37*
%LPC*%
G36*
X591697Y659705D02*
X591697Y659705D01*
X587737Y661346D01*
X584706Y664377D01*
X583065Y668337D01*
X583065Y672623D01*
X584706Y676583D01*
X587677Y679555D01*
X587719Y679614D01*
X587766Y679663D01*
X587776Y679683D01*
X587794Y679706D01*
X587804Y679732D01*
X587821Y679755D01*
X587845Y679832D01*
X587870Y679886D01*
X587872Y679904D01*
X587883Y679935D01*
X587885Y679963D01*
X587893Y679990D01*
X587891Y680078D01*
X587897Y680130D01*
X587894Y680145D01*
X587895Y680180D01*
X587887Y680207D01*
X587887Y680236D01*
X587855Y680324D01*
X587844Y680371D01*
X587838Y680381D01*
X587828Y680417D01*
X587812Y680440D01*
X587802Y680467D01*
X587743Y680541D01*
X587740Y680545D01*
X587718Y680582D01*
X587710Y680588D01*
X587689Y680620D01*
X587666Y680637D01*
X587649Y680659D01*
X587568Y680710D01*
X587564Y680714D01*
X587531Y680742D01*
X587522Y680745D01*
X587492Y680768D01*
X587459Y680780D01*
X587442Y680792D01*
X587410Y680800D01*
X587336Y680829D01*
X583791Y681779D01*
X577854Y685206D01*
X573006Y690054D01*
X569579Y695991D01*
X567804Y702612D01*
X567804Y709468D01*
X569579Y716089D01*
X573006Y722026D01*
X577854Y726874D01*
X583791Y730301D01*
X590412Y732076D01*
X597268Y732076D01*
X603889Y730301D01*
X609826Y726874D01*
X614674Y722026D01*
X618101Y716089D01*
X619876Y709468D01*
X619876Y702612D01*
X618101Y695991D01*
X614674Y690054D01*
X609826Y685206D01*
X603889Y681779D01*
X600344Y680829D01*
X600312Y680814D01*
X600301Y680812D01*
X600260Y680791D01*
X600257Y680789D01*
X600168Y680757D01*
X600146Y680739D01*
X600120Y680727D01*
X600092Y680702D01*
X600083Y680697D01*
X600054Y680667D01*
X600050Y680663D01*
X599976Y680603D01*
X599960Y680579D01*
X599940Y680560D01*
X599922Y680527D01*
X599914Y680519D01*
X599895Y680479D01*
X599894Y680476D01*
X599843Y680396D01*
X599836Y680369D01*
X599822Y680344D01*
X599816Y680307D01*
X599810Y680296D01*
X599805Y680247D01*
X599783Y680157D01*
X599785Y680129D01*
X599780Y680102D01*
X599785Y680067D01*
X599783Y680051D01*
X599795Y679998D01*
X599802Y679912D01*
X599813Y679886D01*
X599817Y679858D01*
X599831Y679830D01*
X599836Y679811D01*
X599867Y679758D01*
X599898Y679686D01*
X599920Y679658D01*
X599930Y679640D01*
X599949Y679621D01*
X599962Y679600D01*
X599978Y679586D01*
X600003Y679555D01*
X602974Y676583D01*
X604615Y672623D01*
X604615Y668337D01*
X602974Y664377D01*
X599943Y661346D01*
X595983Y659705D01*
X591697Y659705D01*
G37*
%LPD*%
%LPC*%
G36*
X438012Y172004D02*
X438012Y172004D01*
X431391Y173779D01*
X425454Y177206D01*
X420606Y182054D01*
X417179Y187991D01*
X415404Y194612D01*
X415404Y201468D01*
X417179Y208089D01*
X420606Y214026D01*
X425454Y218874D01*
X431391Y222301D01*
X438012Y224076D01*
X444868Y224076D01*
X451489Y222301D01*
X457426Y218874D01*
X462274Y214026D01*
X465701Y208089D01*
X467476Y201468D01*
X467476Y194612D01*
X465701Y187991D01*
X462274Y182054D01*
X457426Y177206D01*
X451489Y173779D01*
X444868Y172004D01*
X438012Y172004D01*
G37*
%LPD*%
%LPC*%
G36*
X292137Y103025D02*
X292137Y103025D01*
X287901Y104780D01*
X284659Y108022D01*
X282904Y112258D01*
X282904Y116842D01*
X284659Y121078D01*
X287901Y124320D01*
X291883Y125970D01*
X291983Y126031D01*
X292006Y126045D01*
X292025Y126056D01*
X292028Y126059D01*
X292083Y126091D01*
X292087Y126096D01*
X292092Y126099D01*
X292167Y126189D01*
X292243Y126278D01*
X292245Y126284D01*
X292249Y126289D01*
X292291Y126397D01*
X292335Y126506D01*
X292336Y126514D01*
X292337Y126519D01*
X292338Y126537D01*
X292353Y126673D01*
X292353Y392107D01*
X293916Y393670D01*
X312450Y412204D01*
X312503Y412278D01*
X312563Y412348D01*
X312575Y412378D01*
X312594Y412404D01*
X312621Y412491D01*
X312655Y412576D01*
X312659Y412617D01*
X312666Y412639D01*
X312665Y412671D01*
X312673Y412742D01*
X312673Y466907D01*
X312659Y466997D01*
X312651Y467088D01*
X312639Y467117D01*
X312634Y467149D01*
X312591Y467230D01*
X312555Y467314D01*
X312529Y467346D01*
X312518Y467367D01*
X312495Y467389D01*
X312450Y467445D01*
X309653Y470242D01*
X309653Y474638D01*
X312762Y477747D01*
X317158Y477747D01*
X320267Y474638D01*
X320267Y470242D01*
X317470Y467445D01*
X317423Y467379D01*
X317413Y467369D01*
X317410Y467363D01*
X317357Y467301D01*
X317345Y467271D01*
X317326Y467245D01*
X317299Y467158D01*
X317265Y467073D01*
X317261Y467032D01*
X317254Y467010D01*
X317255Y466978D01*
X317247Y466907D01*
X317247Y410533D01*
X315684Y408970D01*
X297150Y390436D01*
X297097Y390362D01*
X297037Y390292D01*
X297025Y390262D01*
X297006Y390236D01*
X296979Y390149D01*
X296945Y390064D01*
X296941Y390023D01*
X296934Y390001D01*
X296935Y389969D01*
X296927Y389898D01*
X296927Y126498D01*
X296946Y126384D01*
X296963Y126267D01*
X296965Y126262D01*
X296966Y126256D01*
X297021Y126153D01*
X297074Y126048D01*
X297079Y126044D01*
X297082Y126038D01*
X297166Y125958D01*
X297250Y125876D01*
X297256Y125872D01*
X297260Y125869D01*
X297277Y125861D01*
X297397Y125795D01*
X300957Y124320D01*
X304199Y121078D01*
X305954Y116842D01*
X305954Y112258D01*
X304199Y108022D01*
X300957Y104780D01*
X296721Y103025D01*
X292137Y103025D01*
G37*
%LPD*%
%LPC*%
G36*
X127037Y103025D02*
X127037Y103025D01*
X122801Y104780D01*
X119559Y108022D01*
X117804Y112258D01*
X117804Y116842D01*
X119559Y121078D01*
X122801Y124320D01*
X126572Y125882D01*
X126672Y125944D01*
X126772Y126004D01*
X126776Y126009D01*
X126781Y126012D01*
X126856Y126102D01*
X126932Y126191D01*
X126934Y126197D01*
X126938Y126202D01*
X126980Y126310D01*
X127024Y126419D01*
X127025Y126427D01*
X127026Y126431D01*
X127027Y126449D01*
X127042Y126586D01*
X127042Y150596D01*
X149890Y173444D01*
X149943Y173518D01*
X150003Y173588D01*
X150015Y173618D01*
X150034Y173644D01*
X150061Y173731D01*
X150095Y173816D01*
X150099Y173857D01*
X150106Y173879D01*
X150105Y173911D01*
X150113Y173983D01*
X150113Y418647D01*
X150099Y418737D01*
X150091Y418828D01*
X150079Y418857D01*
X150074Y418889D01*
X150031Y418970D01*
X149995Y419054D01*
X149969Y419086D01*
X149958Y419107D01*
X149935Y419129D01*
X149890Y419185D01*
X147093Y421982D01*
X147093Y426378D01*
X150202Y429487D01*
X154598Y429487D01*
X157707Y426378D01*
X157707Y421982D01*
X154910Y419185D01*
X154857Y419111D01*
X154797Y419041D01*
X154785Y419011D01*
X154766Y418985D01*
X154739Y418898D01*
X154705Y418813D01*
X154701Y418772D01*
X154694Y418750D01*
X154695Y418718D01*
X154687Y418647D01*
X154687Y171773D01*
X131839Y148925D01*
X131786Y148851D01*
X131726Y148781D01*
X131714Y148751D01*
X131695Y148725D01*
X131668Y148638D01*
X131634Y148553D01*
X131630Y148512D01*
X131623Y148490D01*
X131624Y148458D01*
X131616Y148386D01*
X131616Y126586D01*
X131635Y126471D01*
X131652Y126355D01*
X131654Y126349D01*
X131655Y126343D01*
X131710Y126240D01*
X131763Y126136D01*
X131768Y126131D01*
X131771Y126126D01*
X131855Y126046D01*
X131939Y125963D01*
X131945Y125960D01*
X131949Y125956D01*
X131966Y125948D01*
X132086Y125882D01*
X135857Y124320D01*
X139099Y121078D01*
X140854Y116842D01*
X140854Y112258D01*
X139099Y108022D01*
X135857Y104780D01*
X131621Y103025D01*
X127037Y103025D01*
G37*
%LPD*%
%LPC*%
G36*
X500115Y122214D02*
X500115Y122214D01*
X500132Y122224D01*
X500152Y122228D01*
X500241Y122281D01*
X500332Y122330D01*
X500346Y122344D01*
X500363Y122354D01*
X500430Y122433D01*
X500502Y122508D01*
X500510Y122526D01*
X500523Y122541D01*
X500562Y122637D01*
X500605Y122731D01*
X500607Y122751D01*
X500615Y122769D01*
X500633Y122936D01*
X500633Y433887D01*
X500619Y433977D01*
X500611Y434068D01*
X500599Y434097D01*
X500594Y434129D01*
X500551Y434210D01*
X500515Y434294D01*
X500489Y434326D01*
X500478Y434347D01*
X500455Y434369D01*
X500410Y434425D01*
X497613Y437222D01*
X497613Y441618D01*
X500722Y444727D01*
X505118Y444727D01*
X508227Y441618D01*
X508227Y437222D01*
X505430Y434425D01*
X505377Y434351D01*
X505317Y434281D01*
X505305Y434251D01*
X505286Y434225D01*
X505259Y434138D01*
X505225Y434053D01*
X505221Y434012D01*
X505214Y433990D01*
X505215Y433958D01*
X505207Y433887D01*
X505207Y120925D01*
X505221Y120835D01*
X505229Y120744D01*
X505241Y120714D01*
X505246Y120682D01*
X505289Y120602D01*
X505325Y120518D01*
X505351Y120486D01*
X505362Y120465D01*
X505385Y120443D01*
X505430Y120387D01*
X507056Y118761D01*
X508255Y115866D01*
X508255Y112734D01*
X507056Y109839D01*
X504841Y107624D01*
X501946Y106425D01*
X498814Y106425D01*
X495919Y107624D01*
X493704Y109839D01*
X492505Y112734D01*
X492505Y115866D01*
X493704Y118761D01*
X495919Y120976D01*
X498814Y122175D01*
X499872Y122175D01*
X499892Y122178D01*
X499911Y122176D01*
X500013Y122198D01*
X500115Y122214D01*
G37*
%LPD*%
%LPC*%
G36*
X335622Y111533D02*
X335622Y111533D01*
X332513Y114642D01*
X332513Y119038D01*
X335310Y121835D01*
X335363Y121909D01*
X335423Y121979D01*
X335435Y122009D01*
X335454Y122035D01*
X335481Y122122D01*
X335515Y122207D01*
X335519Y122248D01*
X335526Y122270D01*
X335525Y122302D01*
X335533Y122373D01*
X335533Y451667D01*
X335519Y451757D01*
X335511Y451848D01*
X335499Y451877D01*
X335494Y451909D01*
X335451Y451990D01*
X335415Y452074D01*
X335389Y452106D01*
X335378Y452127D01*
X335355Y452149D01*
X335310Y452205D01*
X332513Y455002D01*
X332513Y459398D01*
X335622Y462507D01*
X340018Y462507D01*
X343127Y459398D01*
X343127Y455002D01*
X340330Y452205D01*
X340277Y452131D01*
X340217Y452061D01*
X340205Y452031D01*
X340186Y452005D01*
X340159Y451918D01*
X340125Y451833D01*
X340121Y451792D01*
X340114Y451770D01*
X340115Y451738D01*
X340107Y451667D01*
X340107Y122373D01*
X340121Y122283D01*
X340129Y122192D01*
X340141Y122163D01*
X340146Y122131D01*
X340189Y122050D01*
X340225Y121966D01*
X340251Y121934D01*
X340262Y121913D01*
X340285Y121891D01*
X340330Y121835D01*
X343127Y119038D01*
X343127Y114642D01*
X340018Y111533D01*
X335622Y111533D01*
G37*
%LPD*%
%LPC*%
G36*
X524214Y106425D02*
X524214Y106425D01*
X521319Y107624D01*
X519104Y109839D01*
X517905Y112734D01*
X517905Y115866D01*
X519104Y118761D01*
X521319Y120976D01*
X523023Y121682D01*
X523123Y121744D01*
X523223Y121803D01*
X523227Y121808D01*
X523232Y121811D01*
X523307Y121902D01*
X523383Y121990D01*
X523385Y121996D01*
X523389Y122001D01*
X523431Y122109D01*
X523475Y122218D01*
X523476Y122226D01*
X523477Y122230D01*
X523478Y122249D01*
X523493Y122385D01*
X523493Y398327D01*
X523479Y398417D01*
X523471Y398508D01*
X523459Y398537D01*
X523454Y398569D01*
X523411Y398650D01*
X523375Y398734D01*
X523349Y398766D01*
X523338Y398787D01*
X523315Y398809D01*
X523270Y398865D01*
X520473Y401662D01*
X520473Y406058D01*
X523582Y409167D01*
X527978Y409167D01*
X531087Y406058D01*
X531087Y401662D01*
X528290Y398865D01*
X528237Y398791D01*
X528177Y398721D01*
X528165Y398691D01*
X528146Y398665D01*
X528119Y398578D01*
X528085Y398493D01*
X528081Y398452D01*
X528074Y398430D01*
X528075Y398398D01*
X528067Y398327D01*
X528067Y122385D01*
X528086Y122270D01*
X528103Y122154D01*
X528105Y122148D01*
X528106Y122142D01*
X528161Y122040D01*
X528214Y121935D01*
X528219Y121930D01*
X528222Y121925D01*
X528306Y121845D01*
X528390Y121763D01*
X528396Y121759D01*
X528400Y121755D01*
X528417Y121748D01*
X528537Y121682D01*
X530241Y120976D01*
X532456Y118761D01*
X533655Y115866D01*
X533655Y112734D01*
X532456Y109839D01*
X530241Y107624D01*
X527346Y106425D01*
X524214Y106425D01*
G37*
%LPD*%
%LPC*%
G36*
X457542Y269013D02*
X457542Y269013D01*
X454433Y272122D01*
X454433Y276518D01*
X457230Y279315D01*
X457283Y279389D01*
X457343Y279459D01*
X457355Y279489D01*
X457374Y279515D01*
X457401Y279602D01*
X457435Y279687D01*
X457439Y279728D01*
X457446Y279750D01*
X457445Y279782D01*
X457453Y279853D01*
X457453Y479607D01*
X457439Y479697D01*
X457431Y479788D01*
X457419Y479817D01*
X457414Y479849D01*
X457371Y479930D01*
X457335Y480014D01*
X457309Y480046D01*
X457298Y480067D01*
X457275Y480089D01*
X457230Y480145D01*
X454433Y482942D01*
X454433Y487338D01*
X457542Y490447D01*
X461938Y490447D01*
X465047Y487338D01*
X465047Y482942D01*
X462250Y480145D01*
X462197Y480071D01*
X462137Y480001D01*
X462125Y479971D01*
X462106Y479945D01*
X462079Y479858D01*
X462045Y479773D01*
X462041Y479732D01*
X462034Y479710D01*
X462035Y479678D01*
X462027Y479607D01*
X462027Y279853D01*
X462041Y279763D01*
X462049Y279672D01*
X462061Y279643D01*
X462066Y279611D01*
X462109Y279530D01*
X462145Y279446D01*
X462171Y279414D01*
X462182Y279393D01*
X462205Y279371D01*
X462250Y279315D01*
X465047Y276518D01*
X465047Y272122D01*
X461938Y269013D01*
X457542Y269013D01*
G37*
%LPD*%
%LPC*%
G36*
X294375Y429526D02*
X294375Y429526D01*
X294392Y429536D01*
X294412Y429540D01*
X294501Y429593D01*
X294592Y429642D01*
X294606Y429656D01*
X294623Y429666D01*
X294690Y429745D01*
X294762Y429820D01*
X294770Y429838D01*
X294783Y429853D01*
X294822Y429949D01*
X294865Y430043D01*
X294867Y430063D01*
X294875Y430081D01*
X294893Y430248D01*
X294893Y489767D01*
X294879Y489857D01*
X294871Y489948D01*
X294859Y489977D01*
X294854Y490009D01*
X294829Y490056D01*
X294828Y490058D01*
X294823Y490067D01*
X294811Y490090D01*
X294775Y490174D01*
X294749Y490206D01*
X294738Y490227D01*
X294715Y490249D01*
X294712Y490253D01*
X294702Y490269D01*
X294692Y490278D01*
X294670Y490305D01*
X291873Y493102D01*
X291873Y497498D01*
X294982Y500607D01*
X299378Y500607D01*
X302487Y497498D01*
X302487Y493102D01*
X299690Y490305D01*
X299646Y490244D01*
X299610Y490206D01*
X299604Y490193D01*
X299577Y490161D01*
X299565Y490131D01*
X299546Y490105D01*
X299519Y490018D01*
X299485Y489933D01*
X299481Y489892D01*
X299474Y489870D01*
X299475Y489838D01*
X299467Y489767D01*
X299467Y427173D01*
X299481Y427083D01*
X299489Y426992D01*
X299501Y426963D01*
X299506Y426931D01*
X299549Y426850D01*
X299585Y426766D01*
X299611Y426734D01*
X299622Y426713D01*
X299645Y426691D01*
X299690Y426635D01*
X299947Y426378D01*
X299947Y421982D01*
X296838Y418873D01*
X292442Y418873D01*
X289333Y421982D01*
X289333Y426378D01*
X292442Y429487D01*
X294132Y429487D01*
X294152Y429490D01*
X294171Y429488D01*
X294273Y429510D01*
X294375Y429526D01*
G37*
%LPD*%
%LPC*%
G36*
X583958Y212665D02*
X583958Y212665D01*
X583065Y213558D01*
X583065Y233322D01*
X583958Y234215D01*
X603722Y234215D01*
X604615Y233322D01*
X604615Y213558D01*
X603722Y212665D01*
X583958Y212665D01*
G37*
%LPD*%
%LPC*%
G36*
X25158Y669865D02*
X25158Y669865D01*
X24265Y670758D01*
X24265Y690522D01*
X25158Y691415D01*
X44922Y691415D01*
X45815Y690522D01*
X45815Y670758D01*
X44922Y669865D01*
X25158Y669865D01*
G37*
%LPD*%
%LPC*%
G36*
X101358Y339665D02*
X101358Y339665D01*
X100465Y340558D01*
X100465Y360322D01*
X101358Y361215D01*
X121122Y361215D01*
X122015Y360322D01*
X122015Y340558D01*
X121122Y339665D01*
X101358Y339665D01*
G37*
%LPD*%
%LPC*%
G36*
X634758Y669615D02*
X634758Y669615D01*
X633865Y670508D01*
X633865Y690272D01*
X634758Y691165D01*
X654522Y691165D01*
X655415Y690272D01*
X655415Y670508D01*
X654522Y669615D01*
X634758Y669615D01*
G37*
%LPD*%
%LPC*%
G36*
X101358Y568265D02*
X101358Y568265D01*
X100465Y569158D01*
X100465Y588922D01*
X101358Y589815D01*
X121122Y589815D01*
X122015Y588922D01*
X122015Y569158D01*
X121122Y568265D01*
X101358Y568265D01*
G37*
%LPD*%
%LPC*%
G36*
X583958Y431105D02*
X583958Y431105D01*
X583065Y431998D01*
X583065Y451762D01*
X583958Y452655D01*
X603722Y452655D01*
X604615Y451762D01*
X604615Y431998D01*
X603722Y431105D01*
X583958Y431105D01*
G37*
%LPD*%
%LPC*%
G36*
X58297Y669865D02*
X58297Y669865D01*
X54337Y671506D01*
X51306Y674537D01*
X49665Y678497D01*
X49665Y682783D01*
X51306Y686743D01*
X54337Y689774D01*
X58297Y691415D01*
X62583Y691415D01*
X66543Y689774D01*
X69574Y686743D01*
X71215Y682783D01*
X71215Y678497D01*
X69574Y674537D01*
X66543Y671506D01*
X62583Y669865D01*
X58297Y669865D01*
G37*
%LPD*%
%LPC*%
G36*
X667897Y669615D02*
X667897Y669615D01*
X663937Y671256D01*
X660906Y674287D01*
X659265Y678247D01*
X659265Y682533D01*
X660906Y686493D01*
X663937Y689524D01*
X667897Y691165D01*
X672183Y691165D01*
X676143Y689524D01*
X679174Y686493D01*
X680815Y682533D01*
X680815Y678247D01*
X679174Y674287D01*
X676143Y671256D01*
X672183Y669615D01*
X667897Y669615D01*
G37*
%LPD*%
%LPC*%
G36*
X58297Y644465D02*
X58297Y644465D01*
X54337Y646106D01*
X51306Y649137D01*
X49665Y653097D01*
X49665Y657383D01*
X51306Y661343D01*
X54337Y664374D01*
X58297Y666015D01*
X62583Y666015D01*
X66543Y664374D01*
X69574Y661343D01*
X71215Y657383D01*
X71215Y653097D01*
X69574Y649137D01*
X66543Y646106D01*
X62583Y644465D01*
X58297Y644465D01*
G37*
%LPD*%
%LPC*%
G36*
X32897Y644465D02*
X32897Y644465D01*
X28937Y646106D01*
X25906Y649137D01*
X24265Y653097D01*
X24265Y657383D01*
X25906Y661343D01*
X28937Y664374D01*
X32897Y666015D01*
X37183Y666015D01*
X41143Y664374D01*
X44174Y661343D01*
X45815Y657383D01*
X45815Y653097D01*
X44174Y649137D01*
X41143Y646106D01*
X37183Y644465D01*
X32897Y644465D01*
G37*
%LPD*%
%LPC*%
G36*
X667897Y644215D02*
X667897Y644215D01*
X663937Y645856D01*
X660906Y648887D01*
X659265Y652847D01*
X659265Y657133D01*
X660906Y661093D01*
X663937Y664124D01*
X667897Y665765D01*
X672183Y665765D01*
X676143Y664124D01*
X679174Y661093D01*
X680815Y657133D01*
X680815Y652847D01*
X679174Y648887D01*
X676143Y645856D01*
X672183Y644215D01*
X667897Y644215D01*
G37*
%LPD*%
%LPC*%
G36*
X642497Y644215D02*
X642497Y644215D01*
X638537Y645856D01*
X635506Y648887D01*
X633865Y652847D01*
X633865Y657133D01*
X635506Y661093D01*
X638537Y664124D01*
X642497Y665765D01*
X646783Y665765D01*
X650743Y664124D01*
X653774Y661093D01*
X655415Y657133D01*
X655415Y652847D01*
X653774Y648887D01*
X650743Y645856D01*
X646783Y644215D01*
X642497Y644215D01*
G37*
%LPD*%
%LPC*%
G36*
X591697Y634305D02*
X591697Y634305D01*
X587737Y635946D01*
X584706Y638977D01*
X583065Y642937D01*
X583065Y647223D01*
X584706Y651183D01*
X587737Y654214D01*
X591697Y655855D01*
X595983Y655855D01*
X599943Y654214D01*
X602974Y651183D01*
X604615Y647223D01*
X604615Y642937D01*
X602974Y638977D01*
X599943Y635946D01*
X595983Y634305D01*
X591697Y634305D01*
G37*
%LPD*%
%LPC*%
G36*
X58297Y619065D02*
X58297Y619065D01*
X54337Y620706D01*
X51306Y623737D01*
X49665Y627697D01*
X49665Y631983D01*
X51306Y635943D01*
X54337Y638974D01*
X58297Y640615D01*
X62583Y640615D01*
X66543Y638974D01*
X69574Y635943D01*
X71215Y631983D01*
X71215Y627697D01*
X69574Y623737D01*
X66543Y620706D01*
X62583Y619065D01*
X58297Y619065D01*
G37*
%LPD*%
%LPC*%
G36*
X32897Y619065D02*
X32897Y619065D01*
X28937Y620706D01*
X25906Y623737D01*
X24265Y627697D01*
X24265Y631983D01*
X25906Y635943D01*
X28937Y638974D01*
X32897Y640615D01*
X37183Y640615D01*
X41143Y638974D01*
X44174Y635943D01*
X45815Y631983D01*
X45815Y627697D01*
X44174Y623737D01*
X41143Y620706D01*
X37183Y619065D01*
X32897Y619065D01*
G37*
%LPD*%
%LPC*%
G36*
X642497Y618815D02*
X642497Y618815D01*
X638537Y620456D01*
X635506Y623487D01*
X633865Y627447D01*
X633865Y631733D01*
X635506Y635693D01*
X638537Y638724D01*
X642497Y640365D01*
X646783Y640365D01*
X650743Y638724D01*
X653774Y635693D01*
X655415Y631733D01*
X655415Y627447D01*
X653774Y623487D01*
X650743Y620456D01*
X646783Y618815D01*
X642497Y618815D01*
G37*
%LPD*%
%LPC*%
G36*
X667897Y618815D02*
X667897Y618815D01*
X663937Y620456D01*
X660906Y623487D01*
X659265Y627447D01*
X659265Y631733D01*
X660906Y635693D01*
X663937Y638724D01*
X667897Y640365D01*
X672183Y640365D01*
X676143Y638724D01*
X679174Y635693D01*
X680815Y631733D01*
X680815Y627447D01*
X679174Y623487D01*
X676143Y620456D01*
X672183Y618815D01*
X667897Y618815D01*
G37*
%LPD*%
%LPC*%
G36*
X591697Y608905D02*
X591697Y608905D01*
X587737Y610546D01*
X584706Y613577D01*
X583065Y617537D01*
X583065Y621823D01*
X584706Y625783D01*
X587737Y628814D01*
X591697Y630455D01*
X595983Y630455D01*
X599943Y628814D01*
X602974Y625783D01*
X604615Y621823D01*
X604615Y617537D01*
X602974Y613577D01*
X599943Y610546D01*
X595983Y608905D01*
X591697Y608905D01*
G37*
%LPD*%
%LPC*%
G36*
X667897Y314015D02*
X667897Y314015D01*
X663937Y315656D01*
X660906Y318687D01*
X659265Y322647D01*
X659265Y326933D01*
X660906Y330893D01*
X663937Y333924D01*
X667897Y335565D01*
X672183Y335565D01*
X676143Y333924D01*
X679174Y330893D01*
X680815Y326933D01*
X680815Y322647D01*
X679174Y318687D01*
X676143Y315656D01*
X672183Y314015D01*
X667897Y314015D01*
G37*
%LPD*%
%LPC*%
G36*
X58297Y288865D02*
X58297Y288865D01*
X54337Y290506D01*
X51306Y293537D01*
X49665Y297497D01*
X49665Y301783D01*
X51306Y305743D01*
X54337Y308774D01*
X58297Y310415D01*
X62583Y310415D01*
X66543Y308774D01*
X69574Y305743D01*
X71215Y301783D01*
X71215Y297497D01*
X69574Y293537D01*
X66543Y290506D01*
X62583Y288865D01*
X58297Y288865D01*
G37*
%LPD*%
%LPC*%
G36*
X32897Y593665D02*
X32897Y593665D01*
X28937Y595306D01*
X25906Y598337D01*
X24265Y602297D01*
X24265Y606583D01*
X25906Y610543D01*
X28937Y613574D01*
X32897Y615215D01*
X37183Y615215D01*
X41143Y613574D01*
X44174Y610543D01*
X45815Y606583D01*
X45815Y602297D01*
X44174Y598337D01*
X41143Y595306D01*
X37183Y593665D01*
X32897Y593665D01*
G37*
%LPD*%
%LPC*%
G36*
X642497Y593415D02*
X642497Y593415D01*
X638537Y595056D01*
X635506Y598087D01*
X633865Y602047D01*
X633865Y606333D01*
X635506Y610293D01*
X638537Y613324D01*
X642497Y614965D01*
X646783Y614965D01*
X650743Y613324D01*
X653774Y610293D01*
X655415Y606333D01*
X655415Y602047D01*
X653774Y598087D01*
X650743Y595056D01*
X646783Y593415D01*
X642497Y593415D01*
G37*
%LPD*%
%LPC*%
G36*
X667897Y593415D02*
X667897Y593415D01*
X663937Y595056D01*
X660906Y598087D01*
X659265Y602047D01*
X659265Y606333D01*
X660906Y610293D01*
X663937Y613324D01*
X667897Y614965D01*
X672183Y614965D01*
X676143Y613324D01*
X679174Y610293D01*
X680815Y606333D01*
X680815Y602047D01*
X679174Y598087D01*
X676143Y595056D01*
X672183Y593415D01*
X667897Y593415D01*
G37*
%LPD*%
%LPC*%
G36*
X667897Y542615D02*
X667897Y542615D01*
X663937Y544256D01*
X660906Y547287D01*
X659265Y551247D01*
X659265Y555533D01*
X660906Y559493D01*
X663937Y562524D01*
X667897Y564165D01*
X672183Y564165D01*
X676143Y562524D01*
X679174Y559493D01*
X680815Y555533D01*
X680815Y551247D01*
X679174Y547287D01*
X676143Y544256D01*
X672183Y542615D01*
X667897Y542615D01*
G37*
%LPD*%
%LPC*%
G36*
X591697Y288865D02*
X591697Y288865D01*
X587737Y290506D01*
X584706Y293537D01*
X583065Y297497D01*
X583065Y301783D01*
X584706Y305743D01*
X587737Y308774D01*
X591697Y310415D01*
X595983Y310415D01*
X599943Y308774D01*
X602974Y305743D01*
X604615Y301783D01*
X604615Y297497D01*
X602974Y293537D01*
X599943Y290506D01*
X595983Y288865D01*
X591697Y288865D01*
G37*
%LPD*%
%LPC*%
G36*
X32897Y288865D02*
X32897Y288865D01*
X28937Y290506D01*
X25906Y293537D01*
X24265Y297497D01*
X24265Y301783D01*
X25906Y305743D01*
X28937Y308774D01*
X32897Y310415D01*
X37183Y310415D01*
X41143Y308774D01*
X44174Y305743D01*
X45815Y301783D01*
X45815Y297497D01*
X44174Y293537D01*
X41143Y290506D01*
X37183Y288865D01*
X32897Y288865D01*
G37*
%LPD*%
%LPC*%
G36*
X109097Y288865D02*
X109097Y288865D01*
X105137Y290506D01*
X102106Y293537D01*
X100465Y297497D01*
X100465Y301783D01*
X102106Y305743D01*
X105137Y308774D01*
X109097Y310415D01*
X113383Y310415D01*
X117343Y308774D01*
X120374Y305743D01*
X122015Y301783D01*
X122015Y297497D01*
X120374Y293537D01*
X117343Y290506D01*
X113383Y288865D01*
X109097Y288865D01*
G37*
%LPD*%
%LPC*%
G36*
X642497Y288615D02*
X642497Y288615D01*
X638537Y290256D01*
X635506Y293287D01*
X633865Y297247D01*
X633865Y301533D01*
X635506Y305493D01*
X638537Y308524D01*
X642497Y310165D01*
X646783Y310165D01*
X650743Y308524D01*
X653774Y305493D01*
X655415Y301533D01*
X655415Y297247D01*
X653774Y293287D01*
X650743Y290256D01*
X646783Y288615D01*
X642497Y288615D01*
G37*
%LPD*%
%LPC*%
G36*
X667897Y288615D02*
X667897Y288615D01*
X663937Y290256D01*
X660906Y293287D01*
X659265Y297247D01*
X659265Y301533D01*
X660906Y305493D01*
X663937Y308524D01*
X667897Y310165D01*
X672183Y310165D01*
X676143Y308524D01*
X679174Y305493D01*
X680815Y301533D01*
X680815Y297247D01*
X679174Y293287D01*
X676143Y290256D01*
X672183Y288615D01*
X667897Y288615D01*
G37*
%LPD*%
%LPC*%
G36*
X32897Y263465D02*
X32897Y263465D01*
X28937Y265106D01*
X25906Y268137D01*
X24265Y272097D01*
X24265Y276383D01*
X25906Y280343D01*
X28937Y283374D01*
X32897Y285015D01*
X37183Y285015D01*
X41143Y283374D01*
X44174Y280343D01*
X45815Y276383D01*
X45815Y272097D01*
X44174Y268137D01*
X41143Y265106D01*
X37183Y263465D01*
X32897Y263465D01*
G37*
%LPD*%
%LPC*%
G36*
X591697Y263465D02*
X591697Y263465D01*
X587737Y265106D01*
X584706Y268137D01*
X583065Y272097D01*
X583065Y276383D01*
X584706Y280343D01*
X587737Y283374D01*
X591697Y285015D01*
X595983Y285015D01*
X599943Y283374D01*
X602974Y280343D01*
X604615Y276383D01*
X604615Y272097D01*
X602974Y268137D01*
X599943Y265106D01*
X595983Y263465D01*
X591697Y263465D01*
G37*
%LPD*%
%LPC*%
G36*
X58297Y263465D02*
X58297Y263465D01*
X54337Y265106D01*
X51306Y268137D01*
X49665Y272097D01*
X49665Y276383D01*
X51306Y280343D01*
X54337Y283374D01*
X58297Y285015D01*
X62583Y285015D01*
X66543Y283374D01*
X69574Y280343D01*
X71215Y276383D01*
X71215Y272097D01*
X69574Y268137D01*
X66543Y265106D01*
X62583Y263465D01*
X58297Y263465D01*
G37*
%LPD*%
%LPC*%
G36*
X109097Y263465D02*
X109097Y263465D01*
X105137Y265106D01*
X102106Y268137D01*
X100465Y272097D01*
X100465Y276383D01*
X102106Y280343D01*
X105137Y283374D01*
X109097Y285015D01*
X113383Y285015D01*
X117343Y283374D01*
X120374Y280343D01*
X122015Y276383D01*
X122015Y272097D01*
X120374Y268137D01*
X117343Y265106D01*
X113383Y263465D01*
X109097Y263465D01*
G37*
%LPD*%
%LPC*%
G36*
X58297Y568265D02*
X58297Y568265D01*
X54337Y569906D01*
X51306Y572937D01*
X49665Y576897D01*
X49665Y581183D01*
X51306Y585143D01*
X54337Y588174D01*
X58297Y589815D01*
X62583Y589815D01*
X66543Y588174D01*
X69574Y585143D01*
X71215Y581183D01*
X71215Y576897D01*
X69574Y572937D01*
X66543Y569906D01*
X62583Y568265D01*
X58297Y568265D01*
G37*
%LPD*%
%LPC*%
G36*
X32897Y568265D02*
X32897Y568265D01*
X28937Y569906D01*
X25906Y572937D01*
X24265Y576897D01*
X24265Y581183D01*
X25906Y585143D01*
X28937Y588174D01*
X32897Y589815D01*
X37183Y589815D01*
X41143Y588174D01*
X44174Y585143D01*
X45815Y581183D01*
X45815Y576897D01*
X44174Y572937D01*
X41143Y569906D01*
X37183Y568265D01*
X32897Y568265D01*
G37*
%LPD*%
%LPC*%
G36*
X667897Y568015D02*
X667897Y568015D01*
X663937Y569656D01*
X660906Y572687D01*
X659265Y576647D01*
X659265Y580933D01*
X660906Y584893D01*
X663937Y587924D01*
X667897Y589565D01*
X672183Y589565D01*
X676143Y587924D01*
X679174Y584893D01*
X680815Y580933D01*
X680815Y576647D01*
X679174Y572687D01*
X676143Y569656D01*
X672183Y568015D01*
X667897Y568015D01*
G37*
%LPD*%
%LPC*%
G36*
X591697Y558105D02*
X591697Y558105D01*
X587737Y559746D01*
X584706Y562777D01*
X583065Y566737D01*
X583065Y571023D01*
X584706Y574983D01*
X587737Y578014D01*
X591697Y579655D01*
X595983Y579655D01*
X599943Y578014D01*
X602974Y574983D01*
X604615Y571023D01*
X604615Y566737D01*
X602974Y562777D01*
X599943Y559746D01*
X595983Y558105D01*
X591697Y558105D01*
G37*
%LPD*%
%LPC*%
G36*
X642497Y263215D02*
X642497Y263215D01*
X638537Y264856D01*
X635506Y267887D01*
X633865Y271847D01*
X633865Y276133D01*
X635506Y280093D01*
X638537Y283124D01*
X642497Y284765D01*
X646783Y284765D01*
X650743Y283124D01*
X653774Y280093D01*
X655415Y276133D01*
X655415Y271847D01*
X653774Y267887D01*
X650743Y264856D01*
X646783Y263215D01*
X642497Y263215D01*
G37*
%LPD*%
%LPC*%
G36*
X667897Y263215D02*
X667897Y263215D01*
X663937Y264856D01*
X660906Y267887D01*
X659265Y271847D01*
X659265Y276133D01*
X660906Y280093D01*
X663937Y283124D01*
X667897Y284765D01*
X672183Y284765D01*
X676143Y283124D01*
X679174Y280093D01*
X680815Y276133D01*
X680815Y271847D01*
X679174Y267887D01*
X676143Y264856D01*
X672183Y263215D01*
X667897Y263215D01*
G37*
%LPD*%
%LPC*%
G36*
X591697Y238065D02*
X591697Y238065D01*
X587737Y239706D01*
X584706Y242737D01*
X583065Y246697D01*
X583065Y250983D01*
X584706Y254943D01*
X587737Y257974D01*
X591697Y259615D01*
X595983Y259615D01*
X599943Y257974D01*
X602974Y254943D01*
X604615Y250983D01*
X604615Y246697D01*
X602974Y242737D01*
X599943Y239706D01*
X595983Y238065D01*
X591697Y238065D01*
G37*
%LPD*%
%LPC*%
G36*
X109097Y542865D02*
X109097Y542865D01*
X105137Y544506D01*
X102106Y547537D01*
X100465Y551497D01*
X100465Y555783D01*
X102106Y559743D01*
X105137Y562774D01*
X109097Y564415D01*
X113383Y564415D01*
X117343Y562774D01*
X120374Y559743D01*
X122015Y555783D01*
X122015Y551497D01*
X120374Y547537D01*
X117343Y544506D01*
X113383Y542865D01*
X109097Y542865D01*
G37*
%LPD*%
%LPC*%
G36*
X58297Y542865D02*
X58297Y542865D01*
X54337Y544506D01*
X51306Y547537D01*
X49665Y551497D01*
X49665Y555783D01*
X51306Y559743D01*
X54337Y562774D01*
X58297Y564415D01*
X62583Y564415D01*
X66543Y562774D01*
X69574Y559743D01*
X71215Y555783D01*
X71215Y551497D01*
X69574Y547537D01*
X66543Y544506D01*
X62583Y542865D01*
X58297Y542865D01*
G37*
%LPD*%
%LPC*%
G36*
X32897Y542865D02*
X32897Y542865D01*
X28937Y544506D01*
X25906Y547537D01*
X24265Y551497D01*
X24265Y555783D01*
X25906Y559743D01*
X28937Y562774D01*
X32897Y564415D01*
X37183Y564415D01*
X41143Y562774D01*
X44174Y559743D01*
X45815Y555783D01*
X45815Y551497D01*
X44174Y547537D01*
X41143Y544506D01*
X37183Y542865D01*
X32897Y542865D01*
G37*
%LPD*%
%LPC*%
G36*
X109097Y238065D02*
X109097Y238065D01*
X105137Y239706D01*
X102106Y242737D01*
X100465Y246697D01*
X100465Y250983D01*
X102106Y254943D01*
X105137Y257974D01*
X109097Y259615D01*
X113383Y259615D01*
X117343Y257974D01*
X120374Y254943D01*
X122015Y250983D01*
X122015Y246697D01*
X120374Y242737D01*
X117343Y239706D01*
X113383Y238065D01*
X109097Y238065D01*
G37*
%LPD*%
%LPC*%
G36*
X642497Y542615D02*
X642497Y542615D01*
X638537Y544256D01*
X635506Y547287D01*
X633865Y551247D01*
X633865Y555533D01*
X635506Y559493D01*
X638537Y562524D01*
X642497Y564165D01*
X646783Y564165D01*
X650743Y562524D01*
X653774Y559493D01*
X655415Y555533D01*
X655415Y551247D01*
X653774Y547287D01*
X650743Y544256D01*
X646783Y542615D01*
X642497Y542615D01*
G37*
%LPD*%
%LPC*%
G36*
X591697Y532705D02*
X591697Y532705D01*
X587737Y534346D01*
X584706Y537377D01*
X583065Y541337D01*
X583065Y545623D01*
X584706Y549583D01*
X587737Y552614D01*
X591697Y554255D01*
X595983Y554255D01*
X599943Y552614D01*
X602974Y549583D01*
X604615Y545623D01*
X604615Y541337D01*
X602974Y537377D01*
X599943Y534346D01*
X595983Y532705D01*
X591697Y532705D01*
G37*
%LPD*%
%LPC*%
G36*
X109097Y517465D02*
X109097Y517465D01*
X105137Y519106D01*
X102106Y522137D01*
X100465Y526097D01*
X100465Y530383D01*
X102106Y534343D01*
X105137Y537374D01*
X109097Y539015D01*
X113383Y539015D01*
X117343Y537374D01*
X120374Y534343D01*
X122015Y530383D01*
X122015Y526097D01*
X120374Y522137D01*
X117343Y519106D01*
X113383Y517465D01*
X109097Y517465D01*
G37*
%LPD*%
%LPC*%
G36*
X58297Y517465D02*
X58297Y517465D01*
X54337Y519106D01*
X51306Y522137D01*
X49665Y526097D01*
X49665Y530383D01*
X51306Y534343D01*
X54337Y537374D01*
X58297Y539015D01*
X62583Y539015D01*
X66543Y537374D01*
X69574Y534343D01*
X71215Y530383D01*
X71215Y526097D01*
X69574Y522137D01*
X66543Y519106D01*
X62583Y517465D01*
X58297Y517465D01*
G37*
%LPD*%
%LPC*%
G36*
X32897Y517465D02*
X32897Y517465D01*
X28937Y519106D01*
X25906Y522137D01*
X24265Y526097D01*
X24265Y530383D01*
X25906Y534343D01*
X28937Y537374D01*
X32897Y539015D01*
X37183Y539015D01*
X41143Y537374D01*
X44174Y534343D01*
X45815Y530383D01*
X45815Y526097D01*
X44174Y522137D01*
X41143Y519106D01*
X37183Y517465D01*
X32897Y517465D01*
G37*
%LPD*%
%LPC*%
G36*
X667897Y517215D02*
X667897Y517215D01*
X663937Y518856D01*
X660906Y521887D01*
X659265Y525847D01*
X659265Y530133D01*
X660906Y534093D01*
X663937Y537124D01*
X667897Y538765D01*
X672183Y538765D01*
X676143Y537124D01*
X679174Y534093D01*
X680815Y530133D01*
X680815Y525847D01*
X679174Y521887D01*
X676143Y518856D01*
X672183Y517215D01*
X667897Y517215D01*
G37*
%LPD*%
%LPC*%
G36*
X642497Y517215D02*
X642497Y517215D01*
X638537Y518856D01*
X635506Y521887D01*
X633865Y525847D01*
X633865Y530133D01*
X635506Y534093D01*
X638537Y537124D01*
X642497Y538765D01*
X646783Y538765D01*
X650743Y537124D01*
X653774Y534093D01*
X655415Y530133D01*
X655415Y525847D01*
X653774Y521887D01*
X650743Y518856D01*
X646783Y517215D01*
X642497Y517215D01*
G37*
%LPD*%
%LPC*%
G36*
X591697Y507305D02*
X591697Y507305D01*
X587737Y508946D01*
X584706Y511977D01*
X583065Y515937D01*
X583065Y520223D01*
X584706Y524183D01*
X587737Y527214D01*
X591697Y528855D01*
X595983Y528855D01*
X599943Y527214D01*
X602974Y524183D01*
X604615Y520223D01*
X604615Y515937D01*
X602974Y511977D01*
X599943Y508946D01*
X595983Y507305D01*
X591697Y507305D01*
G37*
%LPD*%
%LPC*%
G36*
X109097Y492065D02*
X109097Y492065D01*
X105137Y493706D01*
X102106Y496737D01*
X100465Y500697D01*
X100465Y504983D01*
X102106Y508943D01*
X105137Y511974D01*
X109097Y513615D01*
X113383Y513615D01*
X117343Y511974D01*
X120374Y508943D01*
X122015Y504983D01*
X122015Y500697D01*
X120374Y496737D01*
X117343Y493706D01*
X113383Y492065D01*
X109097Y492065D01*
G37*
%LPD*%
%LPC*%
G36*
X58297Y492065D02*
X58297Y492065D01*
X54337Y493706D01*
X51306Y496737D01*
X49665Y500697D01*
X49665Y504983D01*
X51306Y508943D01*
X54337Y511974D01*
X58297Y513615D01*
X62583Y513615D01*
X66543Y511974D01*
X69574Y508943D01*
X71215Y504983D01*
X71215Y500697D01*
X69574Y496737D01*
X66543Y493706D01*
X62583Y492065D01*
X58297Y492065D01*
G37*
%LPD*%
%LPC*%
G36*
X32897Y492065D02*
X32897Y492065D01*
X28937Y493706D01*
X25906Y496737D01*
X24265Y500697D01*
X24265Y504983D01*
X25906Y508943D01*
X28937Y511974D01*
X32897Y513615D01*
X37183Y513615D01*
X41143Y511974D01*
X44174Y508943D01*
X45815Y504983D01*
X45815Y500697D01*
X44174Y496737D01*
X41143Y493706D01*
X37183Y492065D01*
X32897Y492065D01*
G37*
%LPD*%
%LPC*%
G36*
X667897Y491815D02*
X667897Y491815D01*
X663937Y493456D01*
X660906Y496487D01*
X659265Y500447D01*
X659265Y504733D01*
X660906Y508693D01*
X663937Y511724D01*
X667897Y513365D01*
X672183Y513365D01*
X676143Y511724D01*
X679174Y508693D01*
X680815Y504733D01*
X680815Y500447D01*
X679174Y496487D01*
X676143Y493456D01*
X672183Y491815D01*
X667897Y491815D01*
G37*
%LPD*%
%LPC*%
G36*
X642497Y491815D02*
X642497Y491815D01*
X638537Y493456D01*
X635506Y496487D01*
X633865Y500447D01*
X633865Y504733D01*
X635506Y508693D01*
X638537Y511724D01*
X642497Y513365D01*
X646783Y513365D01*
X650743Y511724D01*
X653774Y508693D01*
X655415Y504733D01*
X655415Y500447D01*
X653774Y496487D01*
X650743Y493456D01*
X646783Y491815D01*
X642497Y491815D01*
G37*
%LPD*%
%LPC*%
G36*
X591697Y481905D02*
X591697Y481905D01*
X587737Y483546D01*
X584706Y486577D01*
X583065Y490537D01*
X583065Y494823D01*
X584706Y498783D01*
X587737Y501814D01*
X591697Y503455D01*
X595983Y503455D01*
X599943Y501814D01*
X602974Y498783D01*
X604615Y494823D01*
X604615Y490537D01*
X602974Y486577D01*
X599943Y483546D01*
X595983Y481905D01*
X591697Y481905D01*
G37*
%LPD*%
%LPC*%
G36*
X109097Y466665D02*
X109097Y466665D01*
X105137Y468306D01*
X102106Y471337D01*
X100465Y475297D01*
X100465Y479583D01*
X102106Y483543D01*
X105137Y486574D01*
X109097Y488215D01*
X113383Y488215D01*
X117343Y486574D01*
X120374Y483543D01*
X122015Y479583D01*
X122015Y475297D01*
X120374Y471337D01*
X117343Y468306D01*
X113383Y466665D01*
X109097Y466665D01*
G37*
%LPD*%
%LPC*%
G36*
X58297Y466665D02*
X58297Y466665D01*
X54337Y468306D01*
X51306Y471337D01*
X49665Y475297D01*
X49665Y479583D01*
X51306Y483543D01*
X54337Y486574D01*
X58297Y488215D01*
X62583Y488215D01*
X66543Y486574D01*
X69574Y483543D01*
X71215Y479583D01*
X71215Y475297D01*
X69574Y471337D01*
X66543Y468306D01*
X62583Y466665D01*
X58297Y466665D01*
G37*
%LPD*%
%LPC*%
G36*
X32897Y466665D02*
X32897Y466665D01*
X28937Y468306D01*
X25906Y471337D01*
X24265Y475297D01*
X24265Y479583D01*
X25906Y483543D01*
X28937Y486574D01*
X32897Y488215D01*
X37183Y488215D01*
X41143Y486574D01*
X44174Y483543D01*
X45815Y479583D01*
X45815Y475297D01*
X44174Y471337D01*
X41143Y468306D01*
X37183Y466665D01*
X32897Y466665D01*
G37*
%LPD*%
%LPC*%
G36*
X667897Y466415D02*
X667897Y466415D01*
X663937Y468056D01*
X660906Y471087D01*
X659265Y475047D01*
X659265Y479333D01*
X660906Y483293D01*
X663937Y486324D01*
X667897Y487965D01*
X672183Y487965D01*
X676143Y486324D01*
X679174Y483293D01*
X680815Y479333D01*
X680815Y475047D01*
X679174Y471087D01*
X676143Y468056D01*
X672183Y466415D01*
X667897Y466415D01*
G37*
%LPD*%
%LPC*%
G36*
X642497Y466415D02*
X642497Y466415D01*
X638537Y468056D01*
X635506Y471087D01*
X633865Y475047D01*
X633865Y479333D01*
X635506Y483293D01*
X638537Y486324D01*
X642497Y487965D01*
X646783Y487965D01*
X650743Y486324D01*
X653774Y483293D01*
X655415Y479333D01*
X655415Y475047D01*
X653774Y471087D01*
X650743Y468056D01*
X646783Y466415D01*
X642497Y466415D01*
G37*
%LPD*%
%LPC*%
G36*
X591697Y456505D02*
X591697Y456505D01*
X587737Y458146D01*
X584706Y461177D01*
X583065Y465137D01*
X583065Y469423D01*
X584706Y473383D01*
X587737Y476414D01*
X591697Y478055D01*
X595983Y478055D01*
X599943Y476414D01*
X602974Y473383D01*
X604615Y469423D01*
X604615Y465137D01*
X602974Y461177D01*
X599943Y458146D01*
X595983Y456505D01*
X591697Y456505D01*
G37*
%LPD*%
%LPC*%
G36*
X58297Y238065D02*
X58297Y238065D01*
X54337Y239706D01*
X51306Y242737D01*
X49665Y246697D01*
X49665Y250983D01*
X51306Y254943D01*
X54337Y257974D01*
X58297Y259615D01*
X62583Y259615D01*
X66543Y257974D01*
X69574Y254943D01*
X71215Y250983D01*
X71215Y246697D01*
X69574Y242737D01*
X66543Y239706D01*
X62583Y238065D01*
X58297Y238065D01*
G37*
%LPD*%
%LPC*%
G36*
X32897Y238065D02*
X32897Y238065D01*
X28937Y239706D01*
X25906Y242737D01*
X24265Y246697D01*
X24265Y250983D01*
X25906Y254943D01*
X28937Y257974D01*
X32897Y259615D01*
X37183Y259615D01*
X41143Y257974D01*
X44174Y254943D01*
X45815Y250983D01*
X45815Y246697D01*
X44174Y242737D01*
X41143Y239706D01*
X37183Y238065D01*
X32897Y238065D01*
G37*
%LPD*%
%LPC*%
G36*
X667897Y237815D02*
X667897Y237815D01*
X663937Y239456D01*
X660906Y242487D01*
X659265Y246447D01*
X659265Y250733D01*
X660906Y254693D01*
X663937Y257724D01*
X667897Y259365D01*
X672183Y259365D01*
X676143Y257724D01*
X679174Y254693D01*
X680815Y250733D01*
X680815Y246447D01*
X679174Y242487D01*
X676143Y239456D01*
X672183Y237815D01*
X667897Y237815D01*
G37*
%LPD*%
%LPC*%
G36*
X642497Y237815D02*
X642497Y237815D01*
X638537Y239456D01*
X635506Y242487D01*
X633865Y246447D01*
X633865Y250733D01*
X635506Y254693D01*
X638537Y257724D01*
X642497Y259365D01*
X646783Y259365D01*
X650743Y257724D01*
X653774Y254693D01*
X655415Y250733D01*
X655415Y246447D01*
X653774Y242487D01*
X650743Y239456D01*
X646783Y237815D01*
X642497Y237815D01*
G37*
%LPD*%
%LPC*%
G36*
X58297Y212665D02*
X58297Y212665D01*
X54337Y214306D01*
X51306Y217337D01*
X49665Y221297D01*
X49665Y225583D01*
X51306Y229543D01*
X54337Y232574D01*
X58297Y234215D01*
X62583Y234215D01*
X66543Y232574D01*
X69574Y229543D01*
X71215Y225583D01*
X71215Y221297D01*
X69574Y217337D01*
X66543Y214306D01*
X62583Y212665D01*
X58297Y212665D01*
G37*
%LPD*%
%LPC*%
G36*
X32897Y212665D02*
X32897Y212665D01*
X28937Y214306D01*
X25906Y217337D01*
X24265Y221297D01*
X24265Y225583D01*
X25906Y229543D01*
X28937Y232574D01*
X32897Y234215D01*
X37183Y234215D01*
X41143Y232574D01*
X44174Y229543D01*
X45815Y225583D01*
X45815Y221297D01*
X44174Y217337D01*
X41143Y214306D01*
X37183Y212665D01*
X32897Y212665D01*
G37*
%LPD*%
%LPC*%
G36*
X109097Y212665D02*
X109097Y212665D01*
X105137Y214306D01*
X102106Y217337D01*
X100465Y221297D01*
X100465Y225583D01*
X102106Y229543D01*
X105137Y232574D01*
X109097Y234215D01*
X113383Y234215D01*
X117343Y232574D01*
X120374Y229543D01*
X122015Y225583D01*
X122015Y221297D01*
X120374Y217337D01*
X117343Y214306D01*
X113383Y212665D01*
X109097Y212665D01*
G37*
%LPD*%
%LPC*%
G36*
X667897Y212415D02*
X667897Y212415D01*
X663937Y214056D01*
X660906Y217087D01*
X659265Y221047D01*
X659265Y225333D01*
X660906Y229293D01*
X663937Y232324D01*
X667897Y233965D01*
X672183Y233965D01*
X676143Y232324D01*
X679174Y229293D01*
X680815Y225333D01*
X680815Y221047D01*
X679174Y217087D01*
X676143Y214056D01*
X672183Y212415D01*
X667897Y212415D01*
G37*
%LPD*%
%LPC*%
G36*
X642497Y441015D02*
X642497Y441015D01*
X638537Y442656D01*
X635506Y445687D01*
X633865Y449647D01*
X633865Y453933D01*
X635506Y457893D01*
X638537Y460924D01*
X642497Y462565D01*
X646783Y462565D01*
X650743Y460924D01*
X653774Y457893D01*
X655415Y453933D01*
X655415Y449647D01*
X653774Y445687D01*
X650743Y442656D01*
X646783Y441015D01*
X642497Y441015D01*
G37*
%LPD*%
%LPC*%
G36*
X642497Y212415D02*
X642497Y212415D01*
X638537Y214056D01*
X635506Y217087D01*
X633865Y221047D01*
X633865Y225333D01*
X635506Y229293D01*
X638537Y232324D01*
X642497Y233965D01*
X646783Y233965D01*
X650743Y232324D01*
X653774Y229293D01*
X655415Y225333D01*
X655415Y221047D01*
X653774Y217087D01*
X650743Y214056D01*
X646783Y212415D01*
X642497Y212415D01*
G37*
%LPD*%
%LPC*%
G36*
X109097Y390465D02*
X109097Y390465D01*
X105137Y392106D01*
X102106Y395137D01*
X100465Y399097D01*
X100465Y403383D01*
X102106Y407343D01*
X105137Y410374D01*
X109097Y412015D01*
X113383Y412015D01*
X117343Y410374D01*
X120374Y407343D01*
X122015Y403383D01*
X122015Y399097D01*
X120374Y395137D01*
X117343Y392106D01*
X113383Y390465D01*
X109097Y390465D01*
G37*
%LPD*%
%LPC*%
G36*
X32897Y415865D02*
X32897Y415865D01*
X28937Y417506D01*
X25906Y420537D01*
X24265Y424497D01*
X24265Y428783D01*
X25906Y432743D01*
X28937Y435774D01*
X32897Y437415D01*
X37183Y437415D01*
X41143Y435774D01*
X44174Y432743D01*
X45815Y428783D01*
X45815Y424497D01*
X44174Y420537D01*
X41143Y417506D01*
X37183Y415865D01*
X32897Y415865D01*
G37*
%LPD*%
%LPC*%
G36*
X667897Y415615D02*
X667897Y415615D01*
X663937Y417256D01*
X660906Y420287D01*
X659265Y424247D01*
X659265Y428533D01*
X660906Y432493D01*
X663937Y435524D01*
X667897Y437165D01*
X672183Y437165D01*
X676143Y435524D01*
X679174Y432493D01*
X680815Y428533D01*
X680815Y424247D01*
X679174Y420287D01*
X676143Y417256D01*
X672183Y415615D01*
X667897Y415615D01*
G37*
%LPD*%
%LPC*%
G36*
X642497Y415615D02*
X642497Y415615D01*
X638537Y417256D01*
X635506Y420287D01*
X633865Y424247D01*
X633865Y428533D01*
X635506Y432493D01*
X638537Y435524D01*
X642497Y437165D01*
X646783Y437165D01*
X650743Y435524D01*
X653774Y432493D01*
X655415Y428533D01*
X655415Y424247D01*
X653774Y420287D01*
X650743Y417256D01*
X646783Y415615D01*
X642497Y415615D01*
G37*
%LPD*%
%LPC*%
G36*
X591697Y390465D02*
X591697Y390465D01*
X587737Y392106D01*
X584706Y395137D01*
X583065Y399097D01*
X583065Y403383D01*
X584706Y407343D01*
X587737Y410374D01*
X591697Y412015D01*
X595983Y412015D01*
X599943Y410374D01*
X602974Y407343D01*
X604615Y403383D01*
X604615Y399097D01*
X602974Y395137D01*
X599943Y392106D01*
X595983Y390465D01*
X591697Y390465D01*
G37*
%LPD*%
%LPC*%
G36*
X58297Y390465D02*
X58297Y390465D01*
X54337Y392106D01*
X51306Y395137D01*
X49665Y399097D01*
X49665Y403383D01*
X51306Y407343D01*
X54337Y410374D01*
X58297Y412015D01*
X62583Y412015D01*
X66543Y410374D01*
X69574Y407343D01*
X71215Y403383D01*
X71215Y399097D01*
X69574Y395137D01*
X66543Y392106D01*
X62583Y390465D01*
X58297Y390465D01*
G37*
%LPD*%
%LPC*%
G36*
X32897Y390465D02*
X32897Y390465D01*
X28937Y392106D01*
X25906Y395137D01*
X24265Y399097D01*
X24265Y403383D01*
X25906Y407343D01*
X28937Y410374D01*
X32897Y412015D01*
X37183Y412015D01*
X41143Y410374D01*
X44174Y407343D01*
X45815Y403383D01*
X45815Y399097D01*
X44174Y395137D01*
X41143Y392106D01*
X37183Y390465D01*
X32897Y390465D01*
G37*
%LPD*%
%LPC*%
G36*
X667897Y390215D02*
X667897Y390215D01*
X663937Y391856D01*
X660906Y394887D01*
X659265Y398847D01*
X659265Y403133D01*
X660906Y407093D01*
X663937Y410124D01*
X667897Y411765D01*
X672183Y411765D01*
X676143Y410124D01*
X679174Y407093D01*
X680815Y403133D01*
X680815Y398847D01*
X679174Y394887D01*
X676143Y391856D01*
X672183Y390215D01*
X667897Y390215D01*
G37*
%LPD*%
%LPC*%
G36*
X642497Y390215D02*
X642497Y390215D01*
X638537Y391856D01*
X635506Y394887D01*
X633865Y398847D01*
X633865Y403133D01*
X635506Y407093D01*
X638537Y410124D01*
X642497Y411765D01*
X646783Y411765D01*
X650743Y410124D01*
X653774Y407093D01*
X655415Y403133D01*
X655415Y398847D01*
X653774Y394887D01*
X650743Y391856D01*
X646783Y390215D01*
X642497Y390215D01*
G37*
%LPD*%
%LPC*%
G36*
X591697Y365065D02*
X591697Y365065D01*
X587737Y366706D01*
X584706Y369737D01*
X583065Y373697D01*
X583065Y377983D01*
X584706Y381943D01*
X587737Y384974D01*
X591697Y386615D01*
X595983Y386615D01*
X599943Y384974D01*
X602974Y381943D01*
X604615Y377983D01*
X604615Y373697D01*
X602974Y369737D01*
X599943Y366706D01*
X595983Y365065D01*
X591697Y365065D01*
G37*
%LPD*%
%LPC*%
G36*
X58297Y365065D02*
X58297Y365065D01*
X54337Y366706D01*
X51306Y369737D01*
X49665Y373697D01*
X49665Y377983D01*
X51306Y381943D01*
X54337Y384974D01*
X58297Y386615D01*
X62583Y386615D01*
X66543Y384974D01*
X69574Y381943D01*
X71215Y377983D01*
X71215Y373697D01*
X69574Y369737D01*
X66543Y366706D01*
X62583Y365065D01*
X58297Y365065D01*
G37*
%LPD*%
%LPC*%
G36*
X32897Y365065D02*
X32897Y365065D01*
X28937Y366706D01*
X25906Y369737D01*
X24265Y373697D01*
X24265Y377983D01*
X25906Y381943D01*
X28937Y384974D01*
X32897Y386615D01*
X37183Y386615D01*
X41143Y384974D01*
X44174Y381943D01*
X45815Y377983D01*
X45815Y373697D01*
X44174Y369737D01*
X41143Y366706D01*
X37183Y365065D01*
X32897Y365065D01*
G37*
%LPD*%
%LPC*%
G36*
X667897Y364815D02*
X667897Y364815D01*
X663937Y366456D01*
X660906Y369487D01*
X659265Y373447D01*
X659265Y377733D01*
X660906Y381693D01*
X663937Y384724D01*
X667897Y386365D01*
X672183Y386365D01*
X676143Y384724D01*
X679174Y381693D01*
X680815Y377733D01*
X680815Y373447D01*
X679174Y369487D01*
X676143Y366456D01*
X672183Y364815D01*
X667897Y364815D01*
G37*
%LPD*%
%LPC*%
G36*
X642497Y364815D02*
X642497Y364815D01*
X638537Y366456D01*
X635506Y369487D01*
X633865Y373447D01*
X633865Y377733D01*
X635506Y381693D01*
X638537Y384724D01*
X642497Y386365D01*
X646783Y386365D01*
X650743Y384724D01*
X653774Y381693D01*
X655415Y377733D01*
X655415Y373447D01*
X653774Y369487D01*
X650743Y366456D01*
X646783Y364815D01*
X642497Y364815D01*
G37*
%LPD*%
%LPC*%
G36*
X591697Y339665D02*
X591697Y339665D01*
X587737Y341306D01*
X584706Y344337D01*
X583065Y348297D01*
X583065Y352583D01*
X584706Y356543D01*
X587737Y359574D01*
X591697Y361215D01*
X595983Y361215D01*
X599943Y359574D01*
X602974Y356543D01*
X604615Y352583D01*
X604615Y348297D01*
X602974Y344337D01*
X599943Y341306D01*
X595983Y339665D01*
X591697Y339665D01*
G37*
%LPD*%
%LPC*%
G36*
X58297Y339665D02*
X58297Y339665D01*
X54337Y341306D01*
X51306Y344337D01*
X49665Y348297D01*
X49665Y352583D01*
X51306Y356543D01*
X54337Y359574D01*
X58297Y361215D01*
X62583Y361215D01*
X66543Y359574D01*
X69574Y356543D01*
X71215Y352583D01*
X71215Y348297D01*
X69574Y344337D01*
X66543Y341306D01*
X62583Y339665D01*
X58297Y339665D01*
G37*
%LPD*%
%LPC*%
G36*
X32897Y339665D02*
X32897Y339665D01*
X28937Y341306D01*
X25906Y344337D01*
X24265Y348297D01*
X24265Y352583D01*
X25906Y356543D01*
X28937Y359574D01*
X32897Y361215D01*
X37183Y361215D01*
X41143Y359574D01*
X44174Y356543D01*
X45815Y352583D01*
X45815Y348297D01*
X44174Y344337D01*
X41143Y341306D01*
X37183Y339665D01*
X32897Y339665D01*
G37*
%LPD*%
%LPC*%
G36*
X667897Y339415D02*
X667897Y339415D01*
X663937Y341056D01*
X660906Y344087D01*
X659265Y348047D01*
X659265Y352333D01*
X660906Y356293D01*
X663937Y359324D01*
X667897Y360965D01*
X672183Y360965D01*
X676143Y359324D01*
X679174Y356293D01*
X680815Y352333D01*
X680815Y348047D01*
X679174Y344087D01*
X676143Y341056D01*
X672183Y339415D01*
X667897Y339415D01*
G37*
%LPD*%
%LPC*%
G36*
X642497Y339415D02*
X642497Y339415D01*
X638537Y341056D01*
X635506Y344087D01*
X633865Y348047D01*
X633865Y352333D01*
X635506Y356293D01*
X638537Y359324D01*
X642497Y360965D01*
X646783Y360965D01*
X650743Y359324D01*
X653774Y356293D01*
X655415Y352333D01*
X655415Y348047D01*
X653774Y344087D01*
X650743Y341056D01*
X646783Y339415D01*
X642497Y339415D01*
G37*
%LPD*%
%LPC*%
G36*
X109097Y314265D02*
X109097Y314265D01*
X105137Y315906D01*
X102106Y318937D01*
X100465Y322897D01*
X100465Y327183D01*
X102106Y331143D01*
X105137Y334174D01*
X109097Y335815D01*
X113383Y335815D01*
X117343Y334174D01*
X120374Y331143D01*
X122015Y327183D01*
X122015Y322897D01*
X120374Y318937D01*
X117343Y315906D01*
X113383Y314265D01*
X109097Y314265D01*
G37*
%LPD*%
%LPC*%
G36*
X32897Y314265D02*
X32897Y314265D01*
X28937Y315906D01*
X25906Y318937D01*
X24265Y322897D01*
X24265Y327183D01*
X25906Y331143D01*
X28937Y334174D01*
X32897Y335815D01*
X37183Y335815D01*
X41143Y334174D01*
X44174Y331143D01*
X45815Y327183D01*
X45815Y322897D01*
X44174Y318937D01*
X41143Y315906D01*
X37183Y314265D01*
X32897Y314265D01*
G37*
%LPD*%
%LPC*%
G36*
X58297Y314265D02*
X58297Y314265D01*
X54337Y315906D01*
X51306Y318937D01*
X49665Y322897D01*
X49665Y327183D01*
X51306Y331143D01*
X54337Y334174D01*
X58297Y335815D01*
X62583Y335815D01*
X66543Y334174D01*
X69574Y331143D01*
X71215Y327183D01*
X71215Y322897D01*
X69574Y318937D01*
X66543Y315906D01*
X62583Y314265D01*
X58297Y314265D01*
G37*
%LPD*%
%LPC*%
G36*
X591697Y314265D02*
X591697Y314265D01*
X587737Y315906D01*
X584706Y318937D01*
X583065Y322897D01*
X583065Y327183D01*
X584706Y331143D01*
X587737Y334174D01*
X591697Y335815D01*
X595983Y335815D01*
X599943Y334174D01*
X602974Y331143D01*
X604615Y327183D01*
X604615Y322897D01*
X602974Y318937D01*
X599943Y315906D01*
X595983Y314265D01*
X591697Y314265D01*
G37*
%LPD*%
%LPC*%
G36*
X642497Y314015D02*
X642497Y314015D01*
X638537Y315656D01*
X635506Y318687D01*
X633865Y322647D01*
X633865Y326933D01*
X635506Y330893D01*
X638537Y333924D01*
X642497Y335565D01*
X646783Y335565D01*
X650743Y333924D01*
X653774Y330893D01*
X655415Y326933D01*
X655415Y322647D01*
X653774Y318687D01*
X650743Y315656D01*
X646783Y314015D01*
X642497Y314015D01*
G37*
%LPD*%
%LPC*%
G36*
X448014Y106425D02*
X448014Y106425D01*
X445119Y107624D01*
X442904Y109839D01*
X441705Y112734D01*
X441705Y115866D01*
X442904Y118761D01*
X445119Y120976D01*
X448014Y122175D01*
X451146Y122175D01*
X454041Y120976D01*
X456256Y118761D01*
X457455Y115866D01*
X457455Y112734D01*
X456256Y109839D01*
X454041Y107624D01*
X451146Y106425D01*
X448014Y106425D01*
G37*
%LPD*%
%LPC*%
G36*
X245152Y116073D02*
X245152Y116073D01*
X245152Y127006D01*
X246566Y126782D01*
X248443Y126172D01*
X250202Y125276D01*
X251799Y124116D01*
X253195Y122720D01*
X254355Y121123D01*
X255251Y119364D01*
X255861Y117487D01*
X256085Y116073D01*
X245152Y116073D01*
G37*
%LPD*%
%LPC*%
G36*
X80052Y116073D02*
X80052Y116073D01*
X80052Y127006D01*
X81466Y126782D01*
X83343Y126172D01*
X85102Y125276D01*
X86699Y124116D01*
X88095Y122720D01*
X89255Y121123D01*
X90151Y119364D01*
X90761Y117487D01*
X90985Y116073D01*
X80052Y116073D01*
G37*
%LPD*%
%LPC*%
G36*
X245152Y113027D02*
X245152Y113027D01*
X256085Y113027D01*
X255861Y111613D01*
X255251Y109736D01*
X254355Y107977D01*
X253195Y106380D01*
X251799Y104984D01*
X250202Y103824D01*
X248443Y102928D01*
X246566Y102318D01*
X245152Y102094D01*
X245152Y113027D01*
G37*
%LPD*%
%LPC*%
G36*
X231173Y116073D02*
X231173Y116073D01*
X231397Y117487D01*
X232007Y119364D01*
X232903Y121123D01*
X234063Y122720D01*
X235459Y124116D01*
X237056Y125276D01*
X238815Y126172D01*
X240692Y126782D01*
X242106Y127006D01*
X242106Y116073D01*
X231173Y116073D01*
G37*
%LPD*%
%LPC*%
G36*
X66073Y116073D02*
X66073Y116073D01*
X66297Y117487D01*
X66907Y119364D01*
X67803Y121123D01*
X68963Y122720D01*
X70359Y124116D01*
X71956Y125276D01*
X73715Y126172D01*
X75592Y126782D01*
X77006Y127006D01*
X77006Y116073D01*
X66073Y116073D01*
G37*
%LPD*%
%LPC*%
G36*
X80052Y113027D02*
X80052Y113027D01*
X90985Y113027D01*
X90761Y111613D01*
X90151Y109736D01*
X89255Y107977D01*
X88095Y106380D01*
X86699Y104984D01*
X85102Y103824D01*
X83343Y102928D01*
X81466Y102318D01*
X80052Y102094D01*
X80052Y113027D01*
G37*
%LPD*%
%LPC*%
G36*
X75592Y102318D02*
X75592Y102318D01*
X73715Y102928D01*
X71956Y103824D01*
X70359Y104984D01*
X68963Y106380D01*
X67803Y107977D01*
X66907Y109736D01*
X66297Y111613D01*
X66073Y113027D01*
X77006Y113027D01*
X77006Y102094D01*
X75592Y102318D01*
G37*
%LPD*%
%LPC*%
G36*
X240692Y102318D02*
X240692Y102318D01*
X238815Y102928D01*
X237056Y103824D01*
X235459Y104984D01*
X234063Y106380D01*
X232903Y107977D01*
X232007Y109736D01*
X231397Y111613D01*
X231173Y113027D01*
X242106Y113027D01*
X242106Y102094D01*
X240692Y102318D01*
G37*
%LPD*%
%LPC*%
G36*
X61963Y605963D02*
X61963Y605963D01*
X61963Y616136D01*
X63201Y615940D01*
X64966Y615367D01*
X66620Y614524D01*
X68121Y613433D01*
X69433Y612121D01*
X70524Y610620D01*
X71367Y608966D01*
X71940Y607201D01*
X72136Y605963D01*
X61963Y605963D01*
G37*
%LPD*%
%LPC*%
G36*
X595363Y595803D02*
X595363Y595803D01*
X595363Y605976D01*
X596601Y605780D01*
X598366Y605207D01*
X600020Y604364D01*
X601521Y603273D01*
X602833Y601961D01*
X603924Y600460D01*
X604767Y598806D01*
X605340Y597041D01*
X605536Y595803D01*
X595363Y595803D01*
G37*
%LPD*%
%LPC*%
G36*
X671563Y453313D02*
X671563Y453313D01*
X671563Y463487D01*
X672801Y463290D01*
X674566Y462717D01*
X676220Y461874D01*
X677721Y460784D01*
X679033Y459471D01*
X680124Y457970D01*
X680967Y456316D01*
X681540Y454551D01*
X681736Y453313D01*
X671563Y453313D01*
G37*
%LPD*%
%LPC*%
G36*
X112763Y428163D02*
X112763Y428163D01*
X112763Y438336D01*
X114001Y438140D01*
X115766Y437567D01*
X117420Y436724D01*
X118921Y435633D01*
X120233Y434321D01*
X121324Y432820D01*
X122167Y431166D01*
X122740Y429401D01*
X122936Y428163D01*
X112763Y428163D01*
G37*
%LPD*%
%LPC*%
G36*
X112763Y453563D02*
X112763Y453563D01*
X112763Y463736D01*
X114001Y463540D01*
X115766Y462967D01*
X117420Y462124D01*
X118921Y461033D01*
X120233Y459721D01*
X121324Y458220D01*
X122167Y456566D01*
X122740Y454801D01*
X122936Y453563D01*
X112763Y453563D01*
G37*
%LPD*%
%LPC*%
G36*
X61963Y428163D02*
X61963Y428163D01*
X61963Y438336D01*
X63201Y438140D01*
X64966Y437567D01*
X66620Y436724D01*
X68121Y435633D01*
X69433Y434321D01*
X70524Y432820D01*
X71367Y431166D01*
X71940Y429401D01*
X72136Y428163D01*
X61963Y428163D01*
G37*
%LPD*%
%LPC*%
G36*
X646163Y580313D02*
X646163Y580313D01*
X646163Y590487D01*
X647401Y590290D01*
X649166Y589717D01*
X650820Y588874D01*
X652321Y587784D01*
X653633Y586471D01*
X654724Y584970D01*
X655567Y583316D01*
X656140Y581551D01*
X656336Y580313D01*
X646163Y580313D01*
G37*
%LPD*%
%LPC*%
G36*
X61963Y453563D02*
X61963Y453563D01*
X61963Y463736D01*
X63201Y463540D01*
X64966Y462967D01*
X66620Y462124D01*
X68121Y461033D01*
X69433Y459721D01*
X70524Y458220D01*
X71367Y456566D01*
X71940Y454801D01*
X72136Y453563D01*
X61963Y453563D01*
G37*
%LPD*%
%LPC*%
G36*
X36563Y453563D02*
X36563Y453563D01*
X36563Y463736D01*
X37801Y463540D01*
X39566Y462967D01*
X41220Y462124D01*
X42721Y461033D01*
X44033Y459721D01*
X45124Y458220D01*
X45967Y456566D01*
X46540Y454801D01*
X46736Y453563D01*
X36563Y453563D01*
G37*
%LPD*%
%LPC*%
G36*
X582144Y595803D02*
X582144Y595803D01*
X582340Y597041D01*
X582913Y598806D01*
X583756Y600460D01*
X584847Y601961D01*
X586159Y603273D01*
X587660Y604364D01*
X589314Y605207D01*
X591079Y605780D01*
X592317Y605976D01*
X592317Y595803D01*
X582144Y595803D01*
G37*
%LPD*%
%LPC*%
G36*
X36563Y450517D02*
X36563Y450517D01*
X46736Y450517D01*
X46540Y449279D01*
X45967Y447514D01*
X45124Y445860D01*
X44033Y444359D01*
X42721Y443047D01*
X41220Y441956D01*
X39566Y441113D01*
X37801Y440540D01*
X36563Y440344D01*
X36563Y450517D01*
G37*
%LPD*%
%LPC*%
G36*
X61963Y602917D02*
X61963Y602917D01*
X72136Y602917D01*
X71940Y601679D01*
X71367Y599914D01*
X70524Y598260D01*
X69433Y596759D01*
X68121Y595447D01*
X66620Y594356D01*
X64966Y593513D01*
X63201Y592940D01*
X61963Y592744D01*
X61963Y602917D01*
G37*
%LPD*%
%LPC*%
G36*
X671563Y450267D02*
X671563Y450267D01*
X681736Y450267D01*
X681540Y449029D01*
X680967Y447264D01*
X680124Y445610D01*
X679033Y444109D01*
X677721Y442797D01*
X676220Y441706D01*
X674566Y440863D01*
X672801Y440290D01*
X671563Y440094D01*
X671563Y450267D01*
G37*
%LPD*%
%LPC*%
G36*
X658344Y453313D02*
X658344Y453313D01*
X658540Y454551D01*
X659113Y456316D01*
X659956Y457970D01*
X661047Y459471D01*
X662359Y460784D01*
X663860Y461874D01*
X665514Y462717D01*
X667279Y463290D01*
X668517Y463487D01*
X668517Y453313D01*
X658344Y453313D01*
G37*
%LPD*%
%LPC*%
G36*
X48744Y453563D02*
X48744Y453563D01*
X48940Y454801D01*
X49513Y456566D01*
X50356Y458220D01*
X51447Y459721D01*
X52759Y461033D01*
X54260Y462124D01*
X55914Y462967D01*
X57679Y463540D01*
X58917Y463736D01*
X58917Y453563D01*
X48744Y453563D01*
G37*
%LPD*%
%LPC*%
G36*
X112763Y425117D02*
X112763Y425117D01*
X122936Y425117D01*
X122740Y423879D01*
X122167Y422114D01*
X121324Y420460D01*
X120233Y418959D01*
X118921Y417647D01*
X117420Y416556D01*
X115766Y415713D01*
X114001Y415140D01*
X112763Y414944D01*
X112763Y425117D01*
G37*
%LPD*%
%LPC*%
G36*
X48744Y428163D02*
X48744Y428163D01*
X48940Y429401D01*
X49513Y431166D01*
X50356Y432820D01*
X51447Y434321D01*
X52759Y435633D01*
X54260Y436724D01*
X55914Y437567D01*
X57679Y438140D01*
X58917Y438336D01*
X58917Y428163D01*
X48744Y428163D01*
G37*
%LPD*%
%LPC*%
G36*
X61963Y450517D02*
X61963Y450517D01*
X72136Y450517D01*
X71940Y449279D01*
X71367Y447514D01*
X70524Y445860D01*
X69433Y444359D01*
X68121Y443047D01*
X66620Y441956D01*
X64966Y441113D01*
X63201Y440540D01*
X61963Y440344D01*
X61963Y450517D01*
G37*
%LPD*%
%LPC*%
G36*
X23344Y453563D02*
X23344Y453563D01*
X23540Y454801D01*
X24113Y456566D01*
X24956Y458220D01*
X26047Y459721D01*
X27359Y461033D01*
X28860Y462124D01*
X30514Y462967D01*
X32279Y463540D01*
X33517Y463736D01*
X33517Y453563D01*
X23344Y453563D01*
G37*
%LPD*%
%LPC*%
G36*
X112763Y450517D02*
X112763Y450517D01*
X122936Y450517D01*
X122740Y449279D01*
X122167Y447514D01*
X121324Y445860D01*
X120233Y444359D01*
X118921Y443047D01*
X117420Y441956D01*
X115766Y441113D01*
X114001Y440540D01*
X112763Y440344D01*
X112763Y450517D01*
G37*
%LPD*%
%LPC*%
G36*
X61963Y425117D02*
X61963Y425117D01*
X72136Y425117D01*
X71940Y423879D01*
X71367Y422114D01*
X70524Y420460D01*
X69433Y418959D01*
X68121Y417647D01*
X66620Y416556D01*
X64966Y415713D01*
X63201Y415140D01*
X61963Y414944D01*
X61963Y425117D01*
G37*
%LPD*%
%LPC*%
G36*
X646163Y577267D02*
X646163Y577267D01*
X656336Y577267D01*
X656140Y576029D01*
X655567Y574264D01*
X654724Y572610D01*
X653633Y571109D01*
X652321Y569797D01*
X650820Y568706D01*
X649166Y567863D01*
X647401Y567290D01*
X646163Y567094D01*
X646163Y577267D01*
G37*
%LPD*%
%LPC*%
G36*
X99544Y428163D02*
X99544Y428163D01*
X99740Y429401D01*
X100313Y431166D01*
X101156Y432820D01*
X102247Y434321D01*
X103559Y435633D01*
X105060Y436724D01*
X106714Y437567D01*
X108479Y438140D01*
X109717Y438336D01*
X109717Y428163D01*
X99544Y428163D01*
G37*
%LPD*%
%LPC*%
G36*
X632944Y580313D02*
X632944Y580313D01*
X633140Y581551D01*
X633713Y583316D01*
X634556Y584970D01*
X635647Y586471D01*
X636959Y587784D01*
X638460Y588874D01*
X640114Y589717D01*
X641879Y590290D01*
X643117Y590487D01*
X643117Y580313D01*
X632944Y580313D01*
G37*
%LPD*%
%LPC*%
G36*
X595363Y592757D02*
X595363Y592757D01*
X605536Y592757D01*
X605340Y591519D01*
X604767Y589754D01*
X603924Y588100D01*
X602833Y586599D01*
X601521Y585287D01*
X600020Y584196D01*
X598366Y583353D01*
X596601Y582780D01*
X595363Y582584D01*
X595363Y592757D01*
G37*
%LPD*%
%LPC*%
G36*
X48744Y605963D02*
X48744Y605963D01*
X48940Y607201D01*
X49513Y608966D01*
X50356Y610620D01*
X51447Y612121D01*
X52759Y613433D01*
X54260Y614524D01*
X55914Y615367D01*
X57679Y615940D01*
X58917Y616136D01*
X58917Y605963D01*
X48744Y605963D01*
G37*
%LPD*%
%LPC*%
G36*
X99544Y453563D02*
X99544Y453563D01*
X99740Y454801D01*
X100313Y456566D01*
X101156Y458220D01*
X102247Y459721D01*
X103559Y461033D01*
X105060Y462124D01*
X106714Y462967D01*
X108479Y463540D01*
X109717Y463736D01*
X109717Y453563D01*
X99544Y453563D01*
G37*
%LPD*%
%LPC*%
G36*
X591079Y582780D02*
X591079Y582780D01*
X589314Y583353D01*
X587660Y584196D01*
X586159Y585287D01*
X584847Y586599D01*
X583756Y588100D01*
X582913Y589754D01*
X582340Y591519D01*
X582144Y592757D01*
X592317Y592757D01*
X592317Y582584D01*
X591079Y582780D01*
G37*
%LPD*%
%LPC*%
G36*
X57679Y440540D02*
X57679Y440540D01*
X55914Y441113D01*
X54260Y441956D01*
X52759Y443047D01*
X51447Y444359D01*
X50356Y445860D01*
X49513Y447514D01*
X48940Y449279D01*
X48744Y450517D01*
X58917Y450517D01*
X58917Y440344D01*
X57679Y440540D01*
G37*
%LPD*%
%LPC*%
G36*
X32279Y440540D02*
X32279Y440540D01*
X30514Y441113D01*
X28860Y441956D01*
X27359Y443047D01*
X26047Y444359D01*
X24956Y445860D01*
X24113Y447514D01*
X23540Y449279D01*
X23344Y450517D01*
X33517Y450517D01*
X33517Y440344D01*
X32279Y440540D01*
G37*
%LPD*%
%LPC*%
G36*
X57679Y415140D02*
X57679Y415140D01*
X55914Y415713D01*
X54260Y416556D01*
X52759Y417647D01*
X51447Y418959D01*
X50356Y420460D01*
X49513Y422114D01*
X48940Y423879D01*
X48744Y425117D01*
X58917Y425117D01*
X58917Y414944D01*
X57679Y415140D01*
G37*
%LPD*%
%LPC*%
G36*
X108479Y415140D02*
X108479Y415140D01*
X106714Y415713D01*
X105060Y416556D01*
X103559Y417647D01*
X102247Y418959D01*
X101156Y420460D01*
X100313Y422114D01*
X99740Y423879D01*
X99544Y425117D01*
X109717Y425117D01*
X109717Y414944D01*
X108479Y415140D01*
G37*
%LPD*%
%LPC*%
G36*
X667279Y440290D02*
X667279Y440290D01*
X665514Y440863D01*
X663860Y441706D01*
X662359Y442797D01*
X661047Y444109D01*
X659956Y445610D01*
X659113Y447264D01*
X658540Y449029D01*
X658344Y450267D01*
X668517Y450267D01*
X668517Y440094D01*
X667279Y440290D01*
G37*
%LPD*%
%LPC*%
G36*
X108479Y440540D02*
X108479Y440540D01*
X106714Y441113D01*
X105060Y441956D01*
X103559Y443047D01*
X102247Y444359D01*
X101156Y445860D01*
X100313Y447514D01*
X99740Y449279D01*
X99544Y450517D01*
X109717Y450517D01*
X109717Y440344D01*
X108479Y440540D01*
G37*
%LPD*%
%LPC*%
G36*
X57679Y592940D02*
X57679Y592940D01*
X55914Y593513D01*
X54260Y594356D01*
X52759Y595447D01*
X51447Y596759D01*
X50356Y598260D01*
X49513Y599914D01*
X48940Y601679D01*
X48744Y602917D01*
X58917Y602917D01*
X58917Y592744D01*
X57679Y592940D01*
G37*
%LPD*%
%LPC*%
G36*
X641879Y567290D02*
X641879Y567290D01*
X640114Y567863D01*
X638460Y568706D01*
X636959Y569797D01*
X635647Y571109D01*
X634556Y572610D01*
X633713Y574264D01*
X633140Y576029D01*
X632944Y577267D01*
X643117Y577267D01*
X643117Y567094D01*
X641879Y567290D01*
G37*
%LPD*%
%LPC*%
G36*
X476503Y115823D02*
X476503Y115823D01*
X476503Y123062D01*
X477573Y122849D01*
X479191Y122179D01*
X480648Y121206D01*
X481886Y119968D01*
X482859Y118511D01*
X483529Y116893D01*
X483742Y115823D01*
X476503Y115823D01*
G37*
%LPD*%
%LPC*%
G36*
X466218Y115823D02*
X466218Y115823D01*
X466431Y116893D01*
X467101Y118511D01*
X468074Y119968D01*
X469312Y121206D01*
X470769Y122179D01*
X472387Y122849D01*
X473457Y123062D01*
X473457Y115823D01*
X466218Y115823D01*
G37*
%LPD*%
%LPC*%
G36*
X476503Y112777D02*
X476503Y112777D01*
X483742Y112777D01*
X483529Y111707D01*
X482859Y110089D01*
X481886Y108632D01*
X480648Y107394D01*
X479191Y106421D01*
X477573Y105751D01*
X476503Y105538D01*
X476503Y112777D01*
G37*
%LPD*%
%LPC*%
G36*
X472387Y105751D02*
X472387Y105751D01*
X470769Y106421D01*
X469312Y107394D01*
X468074Y108632D01*
X467101Y110089D01*
X466431Y111707D01*
X466218Y112777D01*
X473457Y112777D01*
X473457Y105538D01*
X472387Y105751D01*
G37*
%LPD*%
%LPC*%
G36*
X111239Y426639D02*
X111239Y426639D01*
X111239Y426641D01*
X111241Y426641D01*
X111241Y426639D01*
X111239Y426639D01*
G37*
%LPD*%
%LPC*%
G36*
X35039Y452039D02*
X35039Y452039D01*
X35039Y452041D01*
X35041Y452041D01*
X35041Y452039D01*
X35039Y452039D01*
G37*
%LPD*%
%LPC*%
G36*
X644639Y578789D02*
X644639Y578789D01*
X644639Y578791D01*
X644641Y578791D01*
X644641Y578789D01*
X644639Y578789D01*
G37*
%LPD*%
%LPC*%
G36*
X593839Y594279D02*
X593839Y594279D01*
X593839Y594281D01*
X593841Y594281D01*
X593841Y594279D01*
X593839Y594279D01*
G37*
%LPD*%
%LPC*%
G36*
X60439Y452039D02*
X60439Y452039D01*
X60439Y452041D01*
X60441Y452041D01*
X60441Y452039D01*
X60439Y452039D01*
G37*
%LPD*%
%LPC*%
G36*
X243628Y114549D02*
X243628Y114549D01*
X243628Y114551D01*
X243630Y114551D01*
X243630Y114549D01*
X243628Y114549D01*
G37*
%LPD*%
%LPC*%
G36*
X474979Y114299D02*
X474979Y114299D01*
X474979Y114301D01*
X474981Y114301D01*
X474981Y114299D01*
X474979Y114299D01*
G37*
%LPD*%
%LPC*%
G36*
X60439Y604439D02*
X60439Y604439D01*
X60439Y604441D01*
X60441Y604441D01*
X60441Y604439D01*
X60439Y604439D01*
G37*
%LPD*%
%LPC*%
G36*
X670039Y451789D02*
X670039Y451789D01*
X670039Y451791D01*
X670041Y451791D01*
X670041Y451789D01*
X670039Y451789D01*
G37*
%LPD*%
%LPC*%
G36*
X60439Y426639D02*
X60439Y426639D01*
X60439Y426641D01*
X60441Y426641D01*
X60441Y426639D01*
X60439Y426639D01*
G37*
%LPD*%
%LPC*%
G36*
X111239Y452039D02*
X111239Y452039D01*
X111239Y452041D01*
X111241Y452041D01*
X111241Y452039D01*
X111239Y452039D01*
G37*
%LPD*%
%LPC*%
G36*
X78528Y114549D02*
X78528Y114549D01*
X78528Y114551D01*
X78530Y114551D01*
X78530Y114549D01*
X78528Y114549D01*
G37*
%LPD*%
D10*
X111240Y350440D03*
D11*
X111240Y325040D03*
X111240Y299640D03*
X111240Y274240D03*
X111240Y248840D03*
X111240Y223440D03*
D10*
X111240Y579040D03*
D11*
X111240Y553640D03*
X111240Y528240D03*
X111240Y502840D03*
X111240Y477440D03*
X111240Y452040D03*
X111240Y426640D03*
X111240Y401240D03*
D10*
X35040Y680640D03*
D11*
X60440Y680640D03*
X35040Y655240D03*
X60440Y655240D03*
X35040Y629840D03*
X60440Y629840D03*
X35040Y604440D03*
X60440Y604440D03*
X35040Y579040D03*
X60440Y579040D03*
X35040Y553640D03*
X60440Y553640D03*
X35040Y528240D03*
X60440Y528240D03*
X35040Y502840D03*
X60440Y502840D03*
X35040Y477440D03*
X60440Y477440D03*
X35040Y452040D03*
X60440Y452040D03*
X35040Y426640D03*
X60440Y426640D03*
X35040Y401240D03*
X60440Y401240D03*
X35040Y375840D03*
X60440Y375840D03*
X35040Y350440D03*
X60440Y350440D03*
X35040Y325040D03*
X60440Y325040D03*
X35040Y299640D03*
X60440Y299640D03*
X35040Y274240D03*
X60440Y274240D03*
X35040Y248840D03*
X60440Y248840D03*
X35040Y223440D03*
X60440Y223440D03*
D10*
X593840Y441880D03*
D11*
X593840Y467280D03*
X593840Y492680D03*
X593840Y518080D03*
X593840Y543480D03*
X593840Y568880D03*
X593840Y594280D03*
X593840Y619680D03*
X593840Y645080D03*
X593840Y670480D03*
X593840Y274240D03*
X593840Y299640D03*
X593840Y325040D03*
X593840Y350440D03*
X593840Y375840D03*
X593840Y401240D03*
D10*
X593840Y223440D03*
D11*
X593840Y248840D03*
D10*
X644640Y680390D03*
D11*
X670040Y680390D03*
X644640Y654990D03*
X670040Y654990D03*
X644640Y629590D03*
X670040Y629590D03*
X644640Y604190D03*
X670040Y604190D03*
X644640Y578790D03*
X670040Y578790D03*
X644640Y553390D03*
X670040Y553390D03*
X644640Y527990D03*
X670040Y527990D03*
X644640Y502590D03*
X670040Y502590D03*
X644640Y477190D03*
X670040Y477190D03*
X644640Y451790D03*
X670040Y451790D03*
X644640Y426390D03*
X670040Y426390D03*
X644640Y400990D03*
X670040Y400990D03*
X644640Y375590D03*
X670040Y375590D03*
X644640Y350190D03*
X670040Y350190D03*
X644640Y324790D03*
X670040Y324790D03*
X644640Y299390D03*
X670040Y299390D03*
X644640Y273990D03*
X670040Y273990D03*
X644640Y248590D03*
X670040Y248590D03*
X644640Y223190D03*
X670040Y223190D03*
D12*
X449580Y114300D03*
X474980Y114300D03*
X500380Y114300D03*
X525780Y114300D03*
D13*
X243629Y114550D03*
X294429Y114550D03*
X78529Y114550D03*
X129329Y114550D03*
D14*
X322580Y515620D03*
X271780Y497840D03*
X337820Y116840D03*
D15*
X337820Y457200D01*
D14*
X337820Y457200D03*
X294640Y424180D03*
D15*
X297180Y426720D01*
X297180Y495300D01*
D14*
X297180Y495300D03*
D15*
X129329Y149649D02*
X129329Y114550D01*
X152400Y172720D02*
X152400Y424180D01*
X152400Y172720D02*
X129329Y149649D01*
D14*
X152400Y424180D03*
D15*
X294640Y391160D02*
X314960Y411480D01*
X314960Y472440D01*
D14*
X314960Y472440D03*
D15*
X294640Y114761D02*
X294429Y114550D01*
X294640Y114761D02*
X294640Y391160D01*
D14*
X459740Y485140D03*
D15*
X459740Y274320D01*
D14*
X459740Y274320D03*
X502920Y439420D03*
D15*
X502920Y116840D02*
X500380Y114300D01*
X502920Y116840D02*
X502920Y439420D01*
D14*
X525780Y403860D03*
D15*
X525780Y114300D01*
M02*
