G04 EAGLE Gerber RS-274X export*
G75*
%MOMM*%
%FSLAX34Y34*%
%LPD*%
%INTop Copper*%
%IPPOS*%
%AMOC8*
5,1,8,0,0,1.08239X$1,22.5*%
G01*
%ADD10R,1.000000X1.100000*%
%ADD11C,0.147500*%
%ADD12R,1.850000X1.850000*%
%ADD13C,1.850000*%
%ADD14C,1.270000*%
%ADD15C,2.000000*%
%ADD16C,0.152400*%
%ADD17C,0.756400*%
%ADD18C,0.254000*%


D10*
X284480Y481720D03*
X284480Y498720D03*
X309880Y484260D03*
X309880Y501260D03*
D11*
X329357Y509597D02*
X347583Y509597D01*
X329357Y509597D02*
X329357Y514023D01*
X347583Y514023D01*
X347583Y509597D01*
X347583Y510998D02*
X329357Y510998D01*
X329357Y512399D02*
X347583Y512399D01*
X347583Y513800D02*
X329357Y513800D01*
X329357Y496897D02*
X347583Y496897D01*
X329357Y496897D02*
X329357Y501323D01*
X347583Y501323D01*
X347583Y496897D01*
X347583Y498298D02*
X329357Y498298D01*
X329357Y499699D02*
X347583Y499699D01*
X347583Y501100D02*
X329357Y501100D01*
X329357Y484197D02*
X347583Y484197D01*
X329357Y484197D02*
X329357Y488623D01*
X347583Y488623D01*
X347583Y484197D01*
X347583Y485598D02*
X329357Y485598D01*
X329357Y486999D02*
X347583Y486999D01*
X347583Y488400D02*
X329357Y488400D01*
X329357Y471497D02*
X347583Y471497D01*
X329357Y471497D02*
X329357Y475923D01*
X347583Y475923D01*
X347583Y471497D01*
X347583Y472898D02*
X329357Y472898D01*
X329357Y474299D02*
X347583Y474299D01*
X347583Y475700D02*
X329357Y475700D01*
X378857Y471497D02*
X397083Y471497D01*
X378857Y471497D02*
X378857Y475923D01*
X397083Y475923D01*
X397083Y471497D01*
X397083Y472898D02*
X378857Y472898D01*
X378857Y474299D02*
X397083Y474299D01*
X397083Y475700D02*
X378857Y475700D01*
X378857Y484197D02*
X397083Y484197D01*
X378857Y484197D02*
X378857Y488623D01*
X397083Y488623D01*
X397083Y484197D01*
X397083Y485598D02*
X378857Y485598D01*
X378857Y486999D02*
X397083Y486999D01*
X397083Y488400D02*
X378857Y488400D01*
X378857Y496897D02*
X397083Y496897D01*
X378857Y496897D02*
X378857Y501323D01*
X397083Y501323D01*
X397083Y496897D01*
X397083Y498298D02*
X378857Y498298D01*
X378857Y499699D02*
X397083Y499699D01*
X397083Y501100D02*
X378857Y501100D01*
X378857Y509597D02*
X397083Y509597D01*
X378857Y509597D02*
X378857Y514023D01*
X397083Y514023D01*
X397083Y509597D01*
X397083Y510998D02*
X378857Y510998D01*
X378857Y512399D02*
X397083Y512399D01*
X397083Y513800D02*
X378857Y513800D01*
D12*
X111240Y350440D03*
D13*
X111240Y325040D03*
X111240Y299640D03*
X111240Y274240D03*
X111240Y248840D03*
X111240Y223440D03*
D12*
X111240Y579040D03*
D13*
X111240Y553640D03*
X111240Y528240D03*
X111240Y502840D03*
X111240Y477440D03*
X111240Y452040D03*
X111240Y426640D03*
X111240Y401240D03*
D12*
X35040Y680640D03*
D13*
X60440Y680640D03*
X35040Y655240D03*
X60440Y655240D03*
X35040Y629840D03*
X60440Y629840D03*
X35040Y604440D03*
X60440Y604440D03*
X35040Y579040D03*
X60440Y579040D03*
X35040Y553640D03*
X60440Y553640D03*
X35040Y528240D03*
X60440Y528240D03*
X35040Y502840D03*
X60440Y502840D03*
X35040Y477440D03*
X60440Y477440D03*
X35040Y452040D03*
X60440Y452040D03*
X35040Y426640D03*
X60440Y426640D03*
X35040Y401240D03*
X60440Y401240D03*
X35040Y375840D03*
X60440Y375840D03*
X35040Y350440D03*
X60440Y350440D03*
X35040Y325040D03*
X60440Y325040D03*
X35040Y299640D03*
X60440Y299640D03*
X35040Y274240D03*
X60440Y274240D03*
X35040Y248840D03*
X60440Y248840D03*
X35040Y223440D03*
X60440Y223440D03*
D12*
X593840Y441880D03*
D13*
X593840Y467280D03*
X593840Y492680D03*
X593840Y518080D03*
X593840Y543480D03*
X593840Y568880D03*
X593840Y594280D03*
X593840Y619680D03*
X593840Y645080D03*
X593840Y670480D03*
X593840Y274240D03*
X593840Y299640D03*
X593840Y325040D03*
X593840Y350440D03*
X593840Y375840D03*
X593840Y401240D03*
D12*
X593840Y223440D03*
D13*
X593840Y248840D03*
D12*
X644640Y680390D03*
D13*
X670040Y680390D03*
X644640Y654990D03*
X670040Y654990D03*
X644640Y629590D03*
X670040Y629590D03*
X644640Y604190D03*
X670040Y604190D03*
X644640Y578790D03*
X670040Y578790D03*
X644640Y553390D03*
X670040Y553390D03*
X644640Y527990D03*
X670040Y527990D03*
X644640Y502590D03*
X670040Y502590D03*
X644640Y477190D03*
X670040Y477190D03*
X644640Y451790D03*
X670040Y451790D03*
X644640Y426390D03*
X670040Y426390D03*
X644640Y400990D03*
X670040Y400990D03*
X644640Y375590D03*
X670040Y375590D03*
X644640Y350190D03*
X670040Y350190D03*
X644640Y324790D03*
X670040Y324790D03*
X644640Y299390D03*
X670040Y299390D03*
X644640Y273990D03*
X670040Y273990D03*
X644640Y248590D03*
X670040Y248590D03*
X644640Y223190D03*
X670040Y223190D03*
D14*
X449580Y114300D03*
X474980Y114300D03*
X500380Y114300D03*
X525780Y114300D03*
D15*
X243629Y114550D03*
X294429Y114550D03*
X78529Y114550D03*
X129329Y114550D03*
D16*
X326390Y511810D02*
X338470Y511810D01*
X326390Y511810D02*
X322580Y515620D01*
D17*
X322580Y515620D03*
D16*
X284480Y498720D02*
X272660Y498720D01*
X271780Y497840D01*
D17*
X271780Y497840D03*
D16*
X111240Y477440D02*
X60440Y477440D01*
X60440Y401240D02*
X111240Y401240D01*
X593840Y619680D02*
X629150Y619680D01*
X644640Y604190D01*
X132360Y481720D02*
X111240Y502840D01*
X132360Y481720D02*
X284480Y481720D01*
X300110Y466090D01*
X330850Y466090D02*
X338470Y473710D01*
X330850Y466090D02*
X300110Y466090D01*
X340360Y114300D02*
X449580Y114300D01*
X340360Y114300D02*
X337820Y116840D01*
D17*
X337820Y116840D03*
X337820Y457200D03*
D16*
X337820Y473060D01*
X338470Y473710D01*
D18*
X337200Y497840D02*
X335280Y497840D01*
X337200Y497840D02*
X338470Y499110D01*
D17*
X294640Y424180D03*
X297180Y495300D03*
D16*
X303140Y501260D01*
X309880Y501260D01*
X331860Y501260D01*
X335280Y497840D01*
D17*
X152400Y424180D03*
D16*
X294640Y424180D01*
X336320Y484260D02*
X338470Y486410D01*
X336320Y484260D02*
X309880Y484260D01*
D17*
X314960Y472440D03*
D16*
X309880Y477520D01*
X309880Y484260D01*
X387970Y486410D02*
X458470Y486410D01*
X459740Y485140D01*
D17*
X459740Y485140D03*
X459740Y274320D03*
D16*
X593760Y274320D01*
X593840Y274240D01*
X481330Y468630D02*
X393050Y468630D01*
X387970Y473710D01*
X581220Y505460D02*
X593840Y518080D01*
X581220Y505460D02*
X518160Y505460D01*
X481330Y468630D01*
X468630Y499110D02*
X387970Y499110D01*
X468630Y499110D02*
X513080Y543560D01*
X593760Y543560D01*
X593840Y543480D01*
D17*
X502920Y439420D03*
D16*
X505380Y441880D01*
X593840Y441880D01*
D17*
X525780Y403860D03*
D16*
X591220Y403860D01*
X593840Y401240D01*
M02*
