M48
;GenerationSoftware,Autodesk,EAGLE,9.6.2*%
;CreationDate,2023-11-04T01:44:17Z*%
FMAT,2
ICI,OFF
METRIC,TZ,000.000
T5C0.350
T4C0.762
T3C1.100
T2C1.300
T1C3.175
%
G90
M71
T1
X44144Y19804
X59384Y70604
X11124Y71874
T2
X12933Y11455
X7853Y11455
X29443Y11455
X24363Y11455
T3
X11124Y32504
X67004Y29939
X64464Y27399
X67004Y27399
X64464Y24859
X67004Y24859
X64464Y22319
X67004Y22319
X67004Y32479
X11124Y35044
X6044Y65524
X11124Y29964
X11124Y27424
X11124Y24884
X11124Y22344
X11124Y57904
X11124Y55364
X11124Y52824
X11124Y50284
X11124Y47744
X11124Y45204
X11124Y42664
X11124Y40124
X3504Y68064
X6044Y68064
X3504Y65524
X3504Y62984
X6044Y62984
X3504Y60444
X6044Y60444
X3504Y57904
X6044Y57904
X3504Y55364
X6044Y55364
X3504Y52824
X6044Y52824
X3504Y50284
X6044Y50284
X3504Y47744
X6044Y47744
X3504Y45204
X6044Y45204
X3504Y42664
X6044Y42664
X3504Y40124
X6044Y40124
X3504Y37584
X6044Y37584
X3504Y35044
X6044Y35044
X3504Y32504
X6044Y32504
X3504Y29964
X6044Y29964
X3504Y27424
X6044Y27424
X3504Y24884
X6044Y24884
X3504Y22344
X6044Y22344
X59384Y44188
X59384Y46728
X59384Y49268
X59384Y51808
X59384Y54348
X59384Y56888
X59384Y59428
X59384Y61968
X59384Y64508
X59384Y67048
X59384Y27424
X59384Y29964
X59384Y32504
X59384Y35044
X59384Y37584
X59384Y40124
X59384Y22344
X59384Y24884
X64464Y68039
X67004Y68039
X64464Y65499
X67004Y65499
X64464Y62959
X67004Y62959
X64464Y60419
X67004Y60419
X64464Y57879
X67004Y57879
X64464Y55339
X67004Y55339
X64464Y52799
X64464Y50259
X67004Y50259
X64464Y47719
X67004Y47719
X64464Y45179
X67004Y45179
X64464Y42639
X67004Y42639
X64464Y40099
X67004Y40099
X64464Y37559
X67004Y37559
X64464Y35019
X67004Y35019
X64464Y32479
X67004Y52799
X64464Y29939
T4
X44958Y11430
X47498Y11430
X50038Y11430
X52578Y11430
T5
X27178Y49784
X33782Y11684
X33782Y45720
X29464Y42418
X29718Y49530
X15240Y42418
X31496Y47244
X45974Y48514
X52578Y40386
X50292Y43942
X45974Y27432
X32258Y51562
M30