G04 EAGLE Gerber RS-274X export*
G75*
%MOMM*%
%FSLAX34Y34*%
%LPD*%
%INSoldermask Top*%
%IPPOS*%
%AMOC8*
5,1,8,0,0,1.08239X$1,22.5*%
G01*
%ADD10R,1.203200X1.303200*%
%ADD11C,0.349006*%
%ADD12R,2.053200X2.053200*%
%ADD13C,2.053200*%
%ADD14C,3.378200*%
%ADD15C,1.473200*%
%ADD16C,2.203200*%


D10*
X284480Y481720D03*
X284480Y498720D03*
X309880Y484260D03*
X309880Y501260D03*
D11*
X329349Y509589D02*
X347591Y509589D01*
X329349Y509589D02*
X329349Y514031D01*
X347591Y514031D01*
X347591Y509589D01*
X347591Y512904D02*
X329349Y512904D01*
X329349Y496889D02*
X347591Y496889D01*
X329349Y496889D02*
X329349Y501331D01*
X347591Y501331D01*
X347591Y496889D01*
X347591Y500204D02*
X329349Y500204D01*
X329349Y484189D02*
X347591Y484189D01*
X329349Y484189D02*
X329349Y488631D01*
X347591Y488631D01*
X347591Y484189D01*
X347591Y487504D02*
X329349Y487504D01*
X329349Y471489D02*
X347591Y471489D01*
X329349Y471489D02*
X329349Y475931D01*
X347591Y475931D01*
X347591Y471489D01*
X347591Y474804D02*
X329349Y474804D01*
X378849Y471489D02*
X397091Y471489D01*
X378849Y471489D02*
X378849Y475931D01*
X397091Y475931D01*
X397091Y471489D01*
X397091Y474804D02*
X378849Y474804D01*
X378849Y484189D02*
X397091Y484189D01*
X378849Y484189D02*
X378849Y488631D01*
X397091Y488631D01*
X397091Y484189D01*
X397091Y487504D02*
X378849Y487504D01*
X378849Y496889D02*
X397091Y496889D01*
X378849Y496889D02*
X378849Y501331D01*
X397091Y501331D01*
X397091Y496889D01*
X397091Y500204D02*
X378849Y500204D01*
X378849Y509589D02*
X397091Y509589D01*
X378849Y509589D02*
X378849Y514031D01*
X397091Y514031D01*
X397091Y509589D01*
X397091Y512904D02*
X378849Y512904D01*
D12*
X111240Y350440D03*
D13*
X111240Y325040D03*
X111240Y299640D03*
X111240Y274240D03*
X111240Y248840D03*
X111240Y223440D03*
D12*
X111240Y579040D03*
D13*
X111240Y553640D03*
X111240Y528240D03*
X111240Y502840D03*
X111240Y477440D03*
X111240Y452040D03*
X111240Y426640D03*
X111240Y401240D03*
D12*
X35040Y680640D03*
D13*
X60440Y680640D03*
X35040Y655240D03*
X60440Y655240D03*
X35040Y629840D03*
X60440Y629840D03*
X35040Y604440D03*
X60440Y604440D03*
X35040Y579040D03*
X60440Y579040D03*
X35040Y553640D03*
X60440Y553640D03*
X35040Y528240D03*
X60440Y528240D03*
X35040Y502840D03*
X60440Y502840D03*
X35040Y477440D03*
X60440Y477440D03*
X35040Y452040D03*
X60440Y452040D03*
X35040Y426640D03*
X60440Y426640D03*
X35040Y401240D03*
X60440Y401240D03*
X35040Y375840D03*
X60440Y375840D03*
X35040Y350440D03*
X60440Y350440D03*
X35040Y325040D03*
X60440Y325040D03*
X35040Y299640D03*
X60440Y299640D03*
X35040Y274240D03*
X60440Y274240D03*
X35040Y248840D03*
X60440Y248840D03*
X35040Y223440D03*
X60440Y223440D03*
D12*
X593840Y441880D03*
D13*
X593840Y467280D03*
X593840Y492680D03*
X593840Y518080D03*
X593840Y543480D03*
X593840Y568880D03*
X593840Y594280D03*
X593840Y619680D03*
X593840Y645080D03*
X593840Y670480D03*
X593840Y274240D03*
X593840Y299640D03*
X593840Y325040D03*
X593840Y350440D03*
X593840Y375840D03*
X593840Y401240D03*
D12*
X593840Y223440D03*
D13*
X593840Y248840D03*
D12*
X644640Y680390D03*
D13*
X670040Y680390D03*
X644640Y654990D03*
X670040Y654990D03*
X644640Y629590D03*
X670040Y629590D03*
X644640Y604190D03*
X670040Y604190D03*
X644640Y578790D03*
X670040Y578790D03*
X644640Y553390D03*
X670040Y553390D03*
X644640Y527990D03*
X670040Y527990D03*
X644640Y502590D03*
X670040Y502590D03*
X644640Y477190D03*
X670040Y477190D03*
X644640Y451790D03*
X670040Y451790D03*
X644640Y426390D03*
X670040Y426390D03*
X644640Y400990D03*
X670040Y400990D03*
X644640Y375590D03*
X670040Y375590D03*
X644640Y350190D03*
X670040Y350190D03*
X644640Y324790D03*
X670040Y324790D03*
X644640Y299390D03*
X670040Y299390D03*
X644640Y273990D03*
X670040Y273990D03*
X644640Y248590D03*
X670040Y248590D03*
X644640Y223190D03*
X670040Y223190D03*
D14*
X593840Y706040D03*
X111240Y718740D03*
X441440Y198040D03*
D15*
X449580Y114300D03*
X474980Y114300D03*
X500380Y114300D03*
X525780Y114300D03*
D16*
X243629Y114550D03*
X294429Y114550D03*
X78529Y114550D03*
X129329Y114550D03*
M02*
